<svg xmlns="http://www.w3.org/2000/svg" xmlns:xlink="http://www.w3.org/1999/xlink" width="500" zoomAndPan="magnify" viewBox="0 0 375 374.999991" height="500" preserveAspectRatio="xMidYMid meet" version="1.0"><defs><g/><clipPath id="8fc343bc2d"><path d="M 353.234375 215.808594 L 371.96875 215.808594 L 371.96875 234.542969 L 353.234375 234.542969 Z M 353.234375 215.808594 " clip-rule="nonzero"/></clipPath></defs><g fill="#fffaf3" fill-opacity="1"><g transform="translate(4.59275, 211.721908)"><g><path d="M -3.390625 -91.5625 L 159.640625 -91.5625 L 102.125 5.875 C 96.644531 -3.4375 91.1875 -12.566406 85.75 -21.515625 C 80.3125 -30.472656 74.898438 -39.5625 69.515625 -48.78125 L 66.640625 -46.03125 L 75.90625 -30.390625 L 54.125 5.875 Z M -3.390625 -91.5625 "/></g></g></g><g fill="#fffaf3" fill-opacity="1"><g transform="translate(160.843491, 211.721908)"><g><path d="M 49.5625 0.125 L 3.90625 0.125 L 3.90625 -91.296875 L 49.5625 -91.296875 C 55.820312 -91.296875 61.710938 -90.097656 67.234375 -87.703125 C 72.753906 -85.316406 77.625 -82.035156 81.84375 -77.859375 C 86.0625 -73.691406 89.34375 -68.820312 91.6875 -63.25 C 94.03125 -57.6875 95.203125 -51.773438 95.203125 -45.515625 C 95.203125 -39.253906 94.03125 -33.363281 91.6875 -27.84375 C 89.34375 -22.320312 86.0625 -17.453125 81.84375 -13.234375 C 77.625 -9.015625 72.753906 -5.734375 67.234375 -3.390625 C 61.710938 -1.046875 55.820312 0.125 49.5625 0.125 Z M 49.5625 0.125 "/></g></g></g><g fill="#fffaf3" fill-opacity="1"><g transform="translate(258.402382, 211.721908)"><g><path d="M 15.515625 -79.6875 C 20.210938 -84.382812 25.492188 -87.90625 31.359375 -90.25 C 37.234375 -92.59375 43.273438 -93.765625 49.484375 -93.765625 C 55.703125 -93.765625 61.742188 -92.59375 67.609375 -90.25 C 73.484375 -87.90625 78.769531 -84.382812 83.46875 -79.6875 L 49.4375 -45.78125 L 83.46875 -11.734375 C 78.769531 -7.035156 73.484375 -3.515625 67.609375 -1.171875 C 61.742188 1.171875 55.703125 2.34375 49.484375 2.34375 C 43.273438 2.34375 37.234375 1.171875 31.359375 -1.171875 C 25.492188 -3.515625 20.210938 -7.035156 15.515625 -11.734375 C 10.828125 -16.429688 7.304688 -21.710938 4.953125 -27.578125 C 2.609375 -33.453125 1.4375 -39.492188 1.4375 -45.703125 C 1.4375 -51.921875 2.609375 -57.960938 4.953125 -63.828125 C 7.304688 -69.703125 10.828125 -74.988281 15.515625 -79.6875 Z M 15.515625 -79.6875 "/></g></g></g><g clip-path="url(#8fc343bc2d)"><path fill="#fffaf3" d="M 353.234375 215.808594 L 371.96875 215.808594 L 371.96875 234.542969 L 353.234375 234.542969 Z M 353.234375 215.808594 " fill-opacity="1" fill-rule="nonzero"/></g><g fill="#000000" fill-opacity="1"><g transform="translate(166.656394, 187.807079)"><g><path d="M 8.515625 -5.9375 L 6.9375 0 L 5.375 0 L 4.359375 -4.9375 L 3.296875 0 L 1.703125 0 L 0.21875 -5.9375 L 1.5 -5.9375 L 2.5 -0.90625 L 3.546875 -5.84375 L 5.21875 -5.84375 L 6.234375 -0.890625 L 7.296875 -5.9375 Z M 8.515625 -5.9375 "/></g></g></g><g fill="#000000" fill-opacity="1"><g transform="translate(175.144659, 187.807079)"><g><path d="M 1.953125 0 L 0.765625 0 L 0.765625 -5.9375 L 1.953125 -5.9375 Z M 1.953125 0 "/></g></g></g><g fill="#000000" fill-opacity="1"><g transform="translate(177.65588, 187.807079)"><g><path d="M 5.046875 -0.9375 L 5.046875 0 L 0.765625 0 L 0.765625 -5.9375 L 4.953125 -5.9375 L 4.953125 -5 L 1.953125 -5 L 1.953125 -3.4375 L 4.75 -3.4375 L 4.75 -2.5 L 1.953125 -2.5 L 1.953125 -0.9375 Z M 5.046875 -0.9375 "/></g></g></g><g fill="#000000" fill-opacity="1"><g transform="translate(182.953525, 187.807079)"><g><path d="M 5.0625 -1.5 C 5.132812 -0.789062 5.273438 -0.289062 5.484375 0 L 4.1875 0 C 4.050781 -0.394531 3.957031 -0.835938 3.90625 -1.328125 C 3.820312 -1.992188 3.554688 -2.34375 3.109375 -2.375 C 2.992188 -2.382812 2.835938 -2.390625 2.640625 -2.390625 L 1.953125 -2.390625 L 1.953125 0 L 0.765625 0 L 0.765625 -5.9375 L 2.9375 -5.9375 C 3.257812 -5.9375 3.546875 -5.921875 3.796875 -5.890625 C 4.265625 -5.828125 4.640625 -5.664062 4.921875 -5.40625 C 5.203125 -5.15625 5.34375 -4.789062 5.34375 -4.3125 C 5.34375 -3.9375 5.238281 -3.628906 5.03125 -3.390625 C 4.832031 -3.148438 4.550781 -2.976562 4.1875 -2.875 C 4.695312 -2.675781 4.988281 -2.21875 5.0625 -1.5 Z M 1.953125 -3.28125 L 2.765625 -3.28125 C 3.003906 -3.28125 3.164062 -3.28125 3.25 -3.28125 C 3.8125 -3.332031 4.09375 -3.617188 4.09375 -4.140625 C 4.09375 -4.398438 4.023438 -4.59375 3.890625 -4.71875 C 3.765625 -4.851562 3.570312 -4.9375 3.3125 -4.96875 C 3.175781 -4.988281 3.007812 -5 2.8125 -5 L 1.953125 -5 Z M 1.953125 -3.28125 "/></g></g></g><g fill="#000000" fill-opacity="1"><g transform="translate(188.577965, 187.807079)"><g><path d="M 3.484375 -3.03125 L 5.875 -3.03125 L 5.875 0 L 4.921875 0 L 4.84375 -0.96875 L 4.578125 -0.359375 C 4.242188 -0.0351562 3.757812 0.125 3.125 0.125 C 2.300781 0.125 1.644531 -0.144531 1.15625 -0.6875 C 0.675781 -1.238281 0.4375 -1.988281 0.4375 -2.9375 C 0.4375 -3.882812 0.710938 -4.640625 1.265625 -5.203125 C 1.816406 -5.765625 2.515625 -6.046875 3.359375 -6.046875 C 4.128906 -6.046875 4.734375 -5.859375 5.171875 -5.484375 C 5.609375 -5.109375 5.859375 -4.613281 5.921875 -4 L 5.9375 -3.921875 L 4.75 -3.921875 L 4.734375 -4 C 4.578125 -4.78125 4.113281 -5.171875 3.34375 -5.171875 C 2.851562 -5.171875 2.453125 -4.972656 2.140625 -4.578125 C 1.835938 -4.191406 1.6875 -3.664062 1.6875 -3 C 1.6875 -2.28125 1.835938 -1.726562 2.140625 -1.34375 C 2.441406 -0.957031 2.832031 -0.765625 3.3125 -0.765625 C 3.695312 -0.765625 4.015625 -0.878906 4.265625 -1.109375 C 4.523438 -1.347656 4.679688 -1.675781 4.734375 -2.09375 L 3.484375 -2.09375 Z M 3.484375 -3.03125 "/></g></g></g><g fill="#000000" fill-opacity="1"><g transform="translate(194.916206, 187.807079)"><g><path d="M 3.984375 -1.78125 L 1.984375 -1.78125 L 1.390625 0 L 0.125 0 L 2.265625 -5.9375 L 3.75 -5.9375 L 5.859375 0 L 4.5625 0 Z M 2.984375 -4.921875 L 2.28125 -2.71875 L 3.671875 -2.71875 Z M 2.984375 -4.921875 "/></g></g></g><g fill="#000000" fill-opacity="1"><g transform="translate(200.729852, 187.807079)"><g><path d="M 5.96875 0 L 4.34375 0 L 1.90625 -4.5 C 1.9375 -3.96875 1.953125 -3.363281 1.953125 -2.6875 L 1.953125 0 L 0.765625 0 L 0.765625 -5.9375 L 2.34375 -5.9375 L 4.828125 -1.34375 C 4.796875 -1.875 4.78125 -2.492188 4.78125 -3.203125 L 4.78125 -5.9375 L 5.96875 -5.9375 Z M 5.96875 0 "/></g></g></g><g fill="#000000" fill-opacity="1"><g transform="translate(166.656394, 197.840416)"><g><path d="M 3.5625 -5.890625 C 4.300781 -5.804688 4.890625 -5.523438 5.328125 -5.046875 C 5.773438 -4.578125 6 -3.910156 6 -3.046875 C 6 -2.171875 5.769531 -1.46875 5.3125 -0.9375 C 4.851562 -0.414062 4.265625 -0.113281 3.546875 -0.03125 C 3.347656 -0.0078125 3.097656 0 2.796875 0 L 0.765625 0 L 0.765625 -5.9375 L 2.8125 -5.9375 C 3.113281 -5.9375 3.363281 -5.921875 3.5625 -5.890625 Z M 3.28125 -0.96875 C 3.738281 -1.019531 4.097656 -1.222656 4.359375 -1.578125 C 4.617188 -1.941406 4.75 -2.425781 4.75 -3.03125 C 4.75 -3.601562 4.617188 -4.050781 4.359375 -4.375 C 4.109375 -4.707031 3.757812 -4.90625 3.3125 -4.96875 C 3.132812 -4.988281 2.921875 -5 2.671875 -5 L 1.953125 -5 L 1.953125 -0.9375 L 2.65625 -0.9375 C 2.945312 -0.9375 3.15625 -0.945312 3.28125 -0.96875 Z M 3.28125 -0.96875 "/></g></g></g><g fill="#000000" fill-opacity="1"><g transform="translate(172.943043, 197.840416)"><g><path d="M 3.984375 -1.78125 L 1.984375 -1.78125 L 1.390625 0 L 0.125 0 L 2.265625 -5.9375 L 3.75 -5.9375 L 5.859375 0 L 4.5625 0 Z M 2.984375 -4.921875 L 2.28125 -2.71875 L 3.671875 -2.71875 Z M 2.984375 -4.921875 "/></g></g></g><g fill="#000000" fill-opacity="1"><g transform="translate(178.756688, 197.840416)"><g><path d="M 5.40625 -5 L 3.390625 -5 L 3.390625 0 L 2.203125 0 L 2.203125 -5 L 0.203125 -5 L 0.203125 -5.9375 L 5.40625 -5.9375 Z M 5.40625 -5 "/></g></g></g><g fill="#000000" fill-opacity="1"><g transform="translate(184.114532, 197.840416)"><g><path d="M 3.984375 -1.78125 L 1.984375 -1.78125 L 1.390625 0 L 0.125 0 L 2.265625 -5.9375 L 3.75 -5.9375 L 5.859375 0 L 4.5625 0 Z M 2.984375 -4.921875 L 2.28125 -2.71875 L 3.671875 -2.71875 Z M 2.984375 -4.921875 "/></g></g></g><g fill="#000000" fill-opacity="1"><g transform="translate(166.656394, 207.873753)"><g><path d="M 3.3125 -6.046875 C 4.082031 -6.046875 4.6875 -5.859375 5.125 -5.484375 C 5.5625 -5.109375 5.8125 -4.613281 5.875 -4 L 5.875 -3.921875 L 4.6875 -3.921875 L 4.671875 -4 C 4.515625 -4.78125 4.054688 -5.171875 3.296875 -5.171875 C 2.804688 -5.171875 2.414062 -4.972656 2.125 -4.578125 C 1.832031 -4.191406 1.6875 -3.664062 1.6875 -3 C 1.6875 -2.28125 1.832031 -1.726562 2.125 -1.34375 C 2.414062 -0.957031 2.800781 -0.765625 3.28125 -0.765625 C 3.65625 -0.765625 3.957031 -0.867188 4.1875 -1.078125 C 4.414062 -1.296875 4.570312 -1.59375 4.65625 -1.96875 L 4.671875 -2.046875 L 5.84375 -2.046875 L 5.828125 -1.96875 C 5.765625 -1.320312 5.5 -0.8125 5.03125 -0.4375 C 4.570312 -0.0625 3.96875 0.125 3.21875 0.125 C 2.382812 0.125 1.710938 -0.148438 1.203125 -0.703125 C 0.691406 -1.253906 0.4375 -2 0.4375 -2.9375 C 0.4375 -3.882812 0.703125 -4.640625 1.234375 -5.203125 C 1.773438 -5.765625 2.46875 -6.046875 3.3125 -6.046875 Z M 3.3125 -6.046875 "/></g></g></g><g fill="#000000" fill-opacity="1"><g transform="translate(172.831238, 207.873753)"><g><path d="M 3.375 -6.046875 C 4.28125 -6.046875 4.992188 -5.765625 5.515625 -5.203125 C 6.035156 -4.648438 6.296875 -3.90625 6.296875 -2.96875 C 6.296875 -2.03125 6.035156 -1.28125 5.515625 -0.71875 C 4.992188 -0.15625 4.28125 0.125 3.375 0.125 C 2.46875 0.125 1.75 -0.15625 1.21875 -0.71875 C 0.695312 -1.28125 0.4375 -2.03125 0.4375 -2.96875 C 0.4375 -3.90625 0.695312 -4.648438 1.21875 -5.203125 C 1.738281 -5.765625 2.457031 -6.046875 3.375 -6.046875 Z M 2.125 -1.34375 C 2.425781 -0.957031 2.835938 -0.765625 3.359375 -0.765625 C 3.890625 -0.765625 4.300781 -0.957031 4.59375 -1.34375 C 4.894531 -1.738281 5.046875 -2.28125 5.046875 -2.96875 C 5.046875 -3.65625 4.894531 -4.191406 4.59375 -4.578125 C 4.300781 -4.972656 3.894531 -5.171875 3.375 -5.171875 C 2.832031 -5.171875 2.410156 -4.972656 2.109375 -4.578125 C 1.816406 -4.191406 1.671875 -3.648438 1.671875 -2.953125 C 1.671875 -2.265625 1.820312 -1.726562 2.125 -1.34375 Z M 2.125 -1.34375 "/></g></g></g><g fill="#000000" fill-opacity="1"><g transform="translate(179.41029, 207.873753)"><g><path d="M 5.0625 -1.5 C 5.132812 -0.789062 5.273438 -0.289062 5.484375 0 L 4.1875 0 C 4.050781 -0.394531 3.957031 -0.835938 3.90625 -1.328125 C 3.820312 -1.992188 3.554688 -2.34375 3.109375 -2.375 C 2.992188 -2.382812 2.835938 -2.390625 2.640625 -2.390625 L 1.953125 -2.390625 L 1.953125 0 L 0.765625 0 L 0.765625 -5.9375 L 2.9375 -5.9375 C 3.257812 -5.9375 3.546875 -5.921875 3.796875 -5.890625 C 4.265625 -5.828125 4.640625 -5.664062 4.921875 -5.40625 C 5.203125 -5.15625 5.34375 -4.789062 5.34375 -4.3125 C 5.34375 -3.9375 5.238281 -3.628906 5.03125 -3.390625 C 4.832031 -3.148438 4.550781 -2.976562 4.1875 -2.875 C 4.695312 -2.675781 4.988281 -2.21875 5.0625 -1.5 Z M 1.953125 -3.28125 L 2.765625 -3.28125 C 3.003906 -3.28125 3.164062 -3.28125 3.25 -3.28125 C 3.8125 -3.332031 4.09375 -3.617188 4.09375 -4.140625 C 4.09375 -4.398438 4.023438 -4.59375 3.890625 -4.71875 C 3.765625 -4.851562 3.570312 -4.9375 3.3125 -4.96875 C 3.175781 -4.988281 3.007812 -5 2.8125 -5 L 1.953125 -5 Z M 1.953125 -3.28125 "/></g></g></g><g fill="#000000" fill-opacity="1"><g transform="translate(185.03473, 207.873753)"><g><path d="M 5.046875 -0.9375 L 5.046875 0 L 0.765625 0 L 0.765625 -5.9375 L 4.953125 -5.9375 L 4.953125 -5 L 1.953125 -5 L 1.953125 -3.4375 L 4.75 -3.4375 L 4.75 -2.5 L 1.953125 -2.5 L 1.953125 -0.9375 Z M 5.046875 -0.9375 "/></g></g></g><g fill="#000000" fill-opacity="1"><g transform="translate(190.332375, 207.873753)"><g/></g></g><g fill="#000000" fill-opacity="1"><g transform="translate(192.000788, 207.873753)"><g><path d="M 1.953125 0 L 0.765625 0 L 0.765625 -5.9375 L 1.953125 -5.9375 Z M 1.953125 0 "/></g></g></g><g fill="#000000" fill-opacity="1"><g transform="translate(194.51201, 207.873753)"><g><path d="M 5.96875 0 L 4.34375 0 L 1.90625 -4.5 C 1.9375 -3.96875 1.953125 -3.363281 1.953125 -2.6875 L 1.953125 0 L 0.765625 0 L 0.765625 -5.9375 L 2.34375 -5.9375 L 4.828125 -1.34375 C 4.796875 -1.875 4.78125 -2.492188 4.78125 -3.203125 L 4.78125 -5.9375 L 5.96875 -5.9375 Z M 5.96875 0 "/></g></g></g><g fill="#000000" fill-opacity="1"><g transform="translate(201.048063, 207.873753)"><g><path d="M 3.3125 -6.046875 C 4.082031 -6.046875 4.6875 -5.859375 5.125 -5.484375 C 5.5625 -5.109375 5.8125 -4.613281 5.875 -4 L 5.875 -3.921875 L 4.6875 -3.921875 L 4.671875 -4 C 4.515625 -4.78125 4.054688 -5.171875 3.296875 -5.171875 C 2.804688 -5.171875 2.414062 -4.972656 2.125 -4.578125 C 1.832031 -4.191406 1.6875 -3.664062 1.6875 -3 C 1.6875 -2.28125 1.832031 -1.726562 2.125 -1.34375 C 2.414062 -0.957031 2.800781 -0.765625 3.28125 -0.765625 C 3.65625 -0.765625 3.957031 -0.867188 4.1875 -1.078125 C 4.414062 -1.296875 4.570312 -1.59375 4.65625 -1.96875 L 4.671875 -2.046875 L 5.84375 -2.046875 L 5.828125 -1.96875 C 5.765625 -1.320312 5.5 -0.8125 5.03125 -0.4375 C 4.570312 -0.0625 3.96875 0.125 3.21875 0.125 C 2.382812 0.125 1.710938 -0.148438 1.203125 -0.703125 C 0.691406 -1.253906 0.4375 -2 0.4375 -2.9375 C 0.4375 -3.882812 0.703125 -4.640625 1.234375 -5.203125 C 1.773438 -5.765625 2.46875 -6.046875 3.3125 -6.046875 Z M 3.3125 -6.046875 "/></g></g></g><g fill="#000000" fill-opacity="1"><g transform="translate(207.222907, 207.873753)"><g><path d="M 0.53125 -1.125 C 0.664062 -1.257812 0.835938 -1.328125 1.046875 -1.328125 C 1.253906 -1.328125 1.425781 -1.257812 1.5625 -1.125 C 1.695312 -0.988281 1.765625 -0.8125 1.765625 -0.59375 C 1.765625 -0.382812 1.695312 -0.210938 1.5625 -0.078125 C 1.425781 0.0546875 1.253906 0.125 1.046875 0.125 C 0.835938 0.125 0.664062 0.0546875 0.53125 -0.078125 C 0.394531 -0.210938 0.328125 -0.382812 0.328125 -0.59375 C 0.328125 -0.8125 0.394531 -0.988281 0.53125 -1.125 Z M 0.53125 -1.125 "/></g></g></g></svg>