<svg xmlns="http://www.w3.org/2000/svg" xmlns:xlink="http://www.w3.org/1999/xlink" width="500" zoomAndPan="magnify" viewBox="0 0 375 374.999991" height="500" preserveAspectRatio="xMidYMid meet" version="1.0"><path fill="#000000" d="M 0 0.03125 L 0 374.96875 L 375 374.96875 L 375 0.03125 Z M 128.96875 91.21875 C 164.796875 91.21875 164.796875 119.15625 164.796875 128.90625 L 164.796875 138.84375 L 143.375 138.84375 L 143.375 128.90625 C 143.375 123.515625 143.375 110.515625 129.3125 110.515625 C 115.40625 110.515625 115.40625 123.296875 115.40625 128.90625 L 115.40625 197.890625 C 115.40625 208.703125 118.75 216.890625 129.3125 216.890625 C 139.84375 216.890625 143.375 209.203125 143.375 197.890625 L 143.375 175.59375 L 131.09375 175.59375 L 131.09375 158.65625 L 164.796875 158.65625 L 164.796875 234.96875 L 144.078125 234.765625 L 144.078125 227.28125 C 142.3125 230.140625 133.96875 237.625 121.984375 237.609375 C 101.734375 237.46875 93.921875 223.46875 93.921875 202.109375 L 93.921875 128.90625 C 93.921875 123.125 93.921875 91.21875 128.96875 91.21875 Z M 186.828125 94.125 L 218.515625 94.125 L 234.03125 197.203125 L 249.890625 94.125 L 281.234375 94.125 L 281.234375 234.96875 L 260.34375 234.96875 L 260.34375 128.90625 L 242.734375 234.96875 L 224.6875 234.96875 L 207.6875 128.90625 L 207.6875 234.765625 L 186.828125 234.765625 Z M 93.796875 251.125 L 281.40625 251.125 L 281.40625 281.578125 L 93.796875 281.578125 Z M 93.796875 251.125 " fill-opacity="1" fill-rule="nonzero"/></svg>