<svg xmlns="http://www.w3.org/2000/svg" xmlns:xlink="http://www.w3.org/1999/xlink" width="500" zoomAndPan="magnify" viewBox="0 0 375 374.999991" height="500" preserveAspectRatio="xMidYMid meet" version="1.0"><path fill="#000000" d="M 280.671875 228.125 L 280.671875 145.6875 L 299.765625 145.6875 L 299.765625 211.375 L 333.203125 211.375 L 333.203125 228.09375 L 280.671875 228.09375 Z M 127.796875 176.75 L 174.359375 140.9375 C 178.75 144.5 183.109375 148.09375 187.5 151.671875 L 143.328125 185.109375 L 152.875 193.46875 L 197.046875 158.84375 C 201.4375 162.40625 205.796875 166 210.1875 169.59375 C 195.535156 181.226562 180.808594 192.765625 166.015625 204.21875 L 175.546875 212.59375 L 219.765625 176.734375 L 219.75 145.703125 L 238.859375 145.703125 L 238.859375 211.390625 L 273.484375 211.390625 L 273.484375 228.109375 L 220.953125 228.109375 L 220.953125 197.0625 C 205.40625 208.984375 189.90625 220.953125 174.375 232.875 L 127.796875 197.0625 C 125.546875 208.453125 117.59375 218.3125 107.296875 223.53125 C 102.84375 225.828125 97.96875 227.28125 93 227.84375 C 90.140625 228.1875 87.265625 228.109375 84.390625 228.109375 L 54.9375 228.109375 L 54.9375 145.703125 L 88.90625 145.703125 C 91.113281 145.726562 93.300781 145.929688 95.472656 146.316406 C 97.644531 146.703125 99.769531 147.265625 101.847656 148.007812 C 103.925781 148.75 105.925781 149.65625 107.855469 150.730469 C 109.78125 151.804688 111.605469 153.027344 113.328125 154.40625 C 120.421875 160.03125 125.484375 168.03125 127.8125 176.75 M 72.875 162.421875 L 72.875 212.578125 L 87.765625 212.5625 C 89.332031 212.511719 90.871094 212.292969 92.390625 211.90625 C 93.90625 211.515625 95.363281 210.972656 96.761719 210.265625 C 98.160156 209.558594 99.464844 208.710938 100.679688 207.71875 C 101.890625 206.730469 102.984375 205.621094 103.953125 204.390625 C 104.769531 203.367188 105.507812 202.289062 106.167969 201.160156 C 106.828125 200.027344 107.402344 198.855469 107.894531 197.644531 C 108.386719 196.429688 108.785156 195.1875 109.097656 193.917969 C 109.410156 192.644531 109.628906 191.359375 109.753906 190.054688 C 109.878906 188.75 109.910156 187.445312 109.847656 186.140625 C 109.785156 184.832031 109.628906 183.535156 109.378906 182.25 C 109.125 180.964844 108.785156 179.703125 108.351562 178.46875 C 107.921875 177.234375 107.402344 176.035156 106.796875 174.875 C 106.027344 173.390625 105.113281 172.003906 104.046875 170.714844 C 102.980469 169.425781 101.789062 168.265625 100.472656 167.234375 C 99.15625 166.199219 97.746094 165.320312 96.242188 164.589844 C 94.738281 163.859375 93.171875 163.300781 91.546875 162.90625 C 88.953125 162.28125 86.265625 162.4375 83.625 162.40625 L 72.875 162.40625 Z M 184.6875 0 L 189.953125 0 C 197.289062 0.0976562 204.59375 0.621094 211.871094 1.582031 C 219.144531 2.539062 226.339844 3.921875 233.449219 5.726562 C 240.5625 7.535156 247.542969 9.75 254.390625 12.382812 C 261.242188 15.011719 267.914062 18.035156 274.40625 21.453125 C 280.746094 24.789062 286.875 28.472656 292.792969 32.503906 C 298.710938 36.535156 304.382812 40.890625 309.808594 45.566406 C 315.234375 50.242188 320.375 55.210938 325.234375 60.472656 C 330.097656 65.734375 334.640625 71.253906 338.875 77.03125 C 344.578125 84.796875 349.644531 92.957031 354.082031 101.511719 C 358.519531 110.0625 362.269531 118.90625 365.335938 128.042969 C 368.398438 137.175781 370.742188 146.492188 372.363281 155.988281 C 373.984375 165.488281 374.863281 175.054688 375 184.6875 L 375 190.3125 C 374.925781 196.085938 374.589844 201.84375 373.980469 207.582031 C 373.375 213.324219 372.503906 219.027344 371.371094 224.6875 C 370.238281 230.347656 368.84375 235.945312 367.191406 241.476562 C 365.539062 247.007812 363.632812 252.449219 361.476562 257.804688 C 359.316406 263.160156 356.917969 268.40625 354.273438 273.539062 C 351.632812 278.671875 348.757812 283.671875 345.648438 288.535156 C 342.542969 293.402344 339.21875 298.117188 335.675781 302.675781 C 332.132812 307.230469 328.386719 311.617188 324.4375 315.828125 C 320.144531 320.414062 315.632812 324.769531 310.902344 328.898438 C 306.167969 333.03125 301.242188 336.914062 296.121094 340.546875 C 290.996094 344.179688 285.703125 347.546875 280.242188 350.648438 C 274.78125 353.746094 269.175781 356.566406 263.429688 359.101562 C 257.683594 361.636719 251.824219 363.875 245.851562 365.820312 C 239.882812 367.765625 233.828125 369.40625 227.691406 370.742188 C 221.554688 372.078125 215.363281 373.101562 209.125 373.8125 C 202.882812 374.523438 196.625 374.917969 190.34375 375 L 184.703125 375 C 173.621094 374.832031 162.640625 373.691406 151.761719 371.574219 C 140.882812 369.460938 130.273438 366.402344 119.9375 362.40625 C 107.34375 357.503906 95.417969 351.320312 84.160156 343.847656 C 72.898438 336.375 62.566406 327.792969 53.15625 318.09375 C 48.136719 312.933594 43.429688 307.503906 39.035156 301.804688 C 34.636719 296.105469 30.582031 290.171875 26.867188 284.007812 C 23.148438 277.84375 19.796875 271.488281 16.8125 264.9375 C 13.824219 258.390625 11.21875 251.691406 9 244.84375 C 3.292969 227.117188 0.292969 208.945312 0 190.328125 L 0 184.6875 C 0.152344 175.832031 0.933594 167.03125 2.339844 158.289062 C 3.746094 149.542969 5.765625 140.945312 8.398438 132.488281 C 11.035156 124.03125 14.253906 115.804688 18.0625 107.808594 C 21.867188 99.8125 26.222656 92.125 31.125 84.75 C 35.710938 77.832031 40.722656 71.242188 46.167969 64.980469 C 51.613281 58.71875 57.441406 52.835938 63.652344 47.335938 C 69.863281 41.832031 76.40625 36.757812 83.277344 32.109375 C 90.152344 27.460938 97.300781 23.277344 104.71875 19.5625 C 117.144531 13.347656 130.109375 8.589844 143.605469 5.289062 C 157.101562 1.988281 170.796875 0.226562 184.6875 0 M 182.296875 19.21875 C 177.753906 19.347656 173.222656 19.664062 168.707031 20.160156 C 164.1875 20.660156 159.699219 21.339844 155.238281 22.203125 C 150.773438 23.066406 146.355469 24.109375 141.976562 25.332031 C 137.601562 26.554688 133.28125 27.957031 129.019531 29.53125 C 124.753906 31.105469 120.5625 32.851562 116.441406 34.765625 C 112.320312 36.683594 108.28125 38.761719 104.332031 41.007812 C 100.378906 43.25 96.523438 45.652344 92.769531 48.210938 C 89.011719 50.765625 85.363281 53.472656 81.828125 56.328125 C 76.019531 61.003906 70.546875 66.042969 65.410156 71.441406 C 60.269531 76.84375 55.511719 82.5625 51.132812 88.597656 C 46.753906 94.628906 42.792969 100.925781 39.25 107.484375 C 35.707031 114.046875 32.613281 120.8125 29.96875 127.78125 C 28.058594 132.859375 26.398438 138.015625 24.984375 143.25 C 23.570312 148.488281 22.410156 153.78125 21.503906 159.128906 C 20.597656 164.476562 19.949219 169.851562 19.558594 175.261719 C 19.167969 180.671875 19.039062 186.089844 19.167969 191.511719 C 19.296875 196.933594 19.683594 202.335938 20.332031 207.722656 C 20.976562 213.109375 21.878906 218.449219 23.039062 223.746094 C 24.199219 229.046875 25.609375 234.277344 27.269531 239.441406 C 28.933594 244.605469 30.835938 249.675781 32.984375 254.65625 C 35.964844 261.515625 39.390625 268.144531 43.253906 274.546875 C 47.121094 280.949219 51.390625 287.066406 56.070312 292.898438 C 60.75 298.730469 65.792969 304.230469 71.203125 309.390625 C 76.613281 314.554688 82.34375 319.335938 88.390625 323.734375 C 93.886719 327.742188 99.605469 331.402344 105.550781 334.710938 C 111.492188 338.019531 117.617188 340.957031 123.917969 343.519531 C 130.21875 346.082031 136.652344 348.25 143.222656 350.027344 C 149.789062 351.804688 156.4375 353.175781 163.171875 354.140625 C 185.921875 357.40625 209.34375 356.078125 231.546875 350.078125 C 239.109375 348.035156 246.488281 345.480469 253.691406 342.40625 C 260.894531 339.332031 267.851562 335.773438 274.554688 331.726562 C 281.261719 327.679688 287.652344 323.1875 293.730469 318.25 C 299.808594 313.308594 305.511719 307.972656 310.84375 302.234375 C 316.179688 296.507812 321.089844 290.4375 325.574219 284.019531 C 330.0625 277.605469 334.078125 270.910156 337.628906 263.933594 C 341.175781 256.957031 344.222656 249.769531 346.765625 242.367188 C 349.308594 234.960938 351.324219 227.417969 352.8125 219.734375 C 355.144531 207.617188 356.152344 195.390625 355.828125 183.054688 C 355.507812 170.714844 353.867188 158.558594 350.90625 146.578125 C 350.046875 143.144531 349.082031 139.738281 348.011719 136.363281 C 346.9375 132.988281 345.757812 129.652344 344.476562 126.351562 C 343.191406 123.050781 341.804688 119.792969 340.316406 116.582031 C 338.828125 113.371094 337.238281 110.207031 335.550781 107.09375 C 333.863281 103.980469 332.074219 100.925781 330.195312 97.925781 C 328.3125 94.925781 326.339844 91.988281 324.273438 89.113281 C 322.203125 86.238281 320.050781 83.433594 317.804688 80.695312 C 315.558594 77.953125 313.230469 75.289062 310.820312 72.699219 C 308.40625 70.105469 305.914062 67.59375 303.34375 65.15625 C 300.773438 62.722656 298.128906 60.371094 295.40625 58.105469 C 292.6875 55.835938 289.898438 53.65625 287.042969 51.566406 C 284.1875 49.472656 281.265625 47.472656 278.28125 45.566406 C 275.296875 43.660156 272.257812 41.847656 269.160156 40.132812 C 266.0625 38.417969 262.914062 36.800781 259.714844 35.285156 C 256.515625 33.769531 253.269531 32.355469 249.980469 31.042969 C 246.691406 29.730469 243.363281 28.523438 240 27.421875 C 230.695312 24.386719 221.195312 22.183594 211.507812 20.804688 C 201.816406 19.429688 192.078125 18.898438 182.296875 19.21875 Z M 182.296875 19.21875 " fill-opacity="1" fill-rule="nonzero"/></svg>