<svg xmlns="http://www.w3.org/2000/svg" xmlns:xlink="http://www.w3.org/1999/xlink" width="500" zoomAndPan="magnify" viewBox="0 0 375 374.999991" height="500" preserveAspectRatio="xMidYMid meet" version="1.0"><path fill="#000000" d="M 255.171875 283.921875 L 255.171875 266.5625 L 254.828125 266.71875 C 250.921875 268.609375 246.671875 269.6875 242.3125 269.890625 C 240.058594 270.0625 237.847656 269.828125 235.675781 269.191406 C 233.507812 268.554688 231.523438 267.550781 229.71875 266.1875 C 228.433594 265.195312 227.320312 264.035156 226.382812 262.710938 C 225.445312 261.382812 224.726562 259.949219 224.21875 258.40625 C 223.101562 254.964844 222.984375 251.492188 223.859375 247.984375 C 224.671875 244.46875 226.640625 241.328125 229.4375 239.09375 C 231.9375 237 234.984375 235.6875 238.21875 235.3125 C 241.074219 234.992188 243.914062 235.097656 246.738281 235.625 C 249.5625 236.152344 252.25 237.078125 254.796875 238.40625 L 255.171875 238.609375 L 255.171875 221.15625 L 254.375 220.9375 C 249.234375 219.296875 243.96875 218.609375 238.578125 218.875 C 233.660156 219 228.957031 220.070312 224.46875 222.09375 C 219.984375 224.15625 216.03125 227.203125 212.921875 231.015625 C 211.742188 232.503906 210.695312 234.078125 209.773438 235.738281 C 208.855469 237.398438 208.078125 239.121094 207.441406 240.910156 C 206.804688 242.699219 206.316406 244.527344 205.980469 246.394531 C 205.640625 248.261719 205.460938 250.144531 205.433594 252.042969 C 205.402344 253.941406 205.53125 255.828125 205.8125 257.703125 C 206.09375 259.582031 206.527344 261.421875 207.109375 263.230469 C 207.695312 265.035156 208.421875 266.78125 209.292969 268.46875 C 210.160156 270.15625 211.164062 271.757812 212.296875 273.28125 C 216.90625 279.1875 223.375 283.359375 230.65625 285.09375 C 238.328125 286.96875 246.375 286.6875 253.890625 284.28125 L 255.171875 283.921875 M 83.375 283.921875 L 83.375 266.5625 L 83.03125 266.71875 C 79.125 268.609375 74.875 269.6875 70.515625 269.890625 C 68.261719 270.066406 66.046875 269.832031 63.878906 269.195312 C 61.710938 268.558594 59.722656 267.554688 57.921875 266.1875 C 56.636719 265.195312 55.527344 264.039062 54.589844 262.710938 C 53.65625 261.386719 52.9375 259.949219 52.4375 258.40625 C 51.882812 256.722656 51.574219 254.992188 51.511719 253.222656 C 51.449219 251.449219 51.632812 249.703125 52.0625 247.984375 C 52.875 244.46875 54.828125 241.328125 57.640625 239.09375 C 60.140625 237 63.1875 235.6875 66.421875 235.3125 C 69.277344 234.992188 72.117188 235.097656 74.941406 235.625 C 77.765625 236.152344 80.453125 237.078125 83 238.40625 L 83.375 238.609375 L 83.375 221.15625 L 82.578125 220.9375 C 77.4375 219.296875 72.171875 218.609375 66.78125 218.875 C 61.863281 219 57.160156 220.074219 52.671875 222.09375 C 48.132812 224.179688 44.277344 227.152344 41.109375 231.015625 C 39.933594 232.503906 38.882812 234.078125 37.964844 235.738281 C 37.046875 237.398438 36.269531 239.121094 35.632812 240.910156 C 34.996094 242.699219 34.507812 244.527344 34.171875 246.394531 C 33.835938 248.261719 33.652344 250.140625 33.625 252.039062 C 33.59375 253.9375 33.71875 255.824219 34 257.699219 C 34.28125 259.578125 34.710938 261.417969 35.292969 263.226562 C 35.875 265.03125 36.601562 266.777344 37.46875 268.464844 C 38.339844 270.152344 39.335938 271.757812 40.46875 273.28125 C 42.769531 276.238281 45.496094 278.726562 48.648438 280.753906 C 51.800781 282.78125 55.199219 284.226562 58.84375 285.09375 C 66.515625 286.96875 74.546875 286.6875 82.078125 284.28125 L 83.375 283.921875 M 144.6875 269.515625 L 144.625 284.46875 L 145.71875 284.65625 C 149.15625 285.296875 152.609375 285.734375 156.09375 285.984375 C 159.140625 286.28125 162.203125 286.328125 165.265625 286.171875 C 168.1875 285.953125 171.078125 285.40625 173.875 284.546875 C 177.15625 283.609375 180.203125 282 182.796875 279.78125 C 185.175781 277.742188 186.910156 275.253906 188 272.3125 C 188.929688 269.894531 189.386719 267.390625 189.367188 264.800781 C 189.351562 262.210938 188.855469 259.714844 187.890625 257.3125 C 186.867188 254.773438 185.316406 252.617188 183.234375 250.84375 C 181.226562 249.046875 178.945312 247.71875 176.390625 246.859375 L 165.109375 242.671875 C 163.714844 242.078125 162.691406 241.097656 162.03125 239.734375 C 161.78125 239.1875 161.667969 238.609375 161.691406 238.007812 C 161.710938 237.40625 161.867188 236.839844 162.15625 236.3125 C 162.746094 235.34375 163.550781 234.605469 164.5625 234.09375 C 165.835938 233.480469 167.175781 233.09375 168.578125 232.9375 C 170.96875 232.59375 173.390625 232.609375 175.765625 233.015625 C 178.578125 233.328125 181.359375 233.8125 184.09375 234.515625 L 184.6875 234.640625 L 184.6875 220.84375 L 183.609375 220.609375 C 180.8125 219.941406 177.984375 219.433594 175.125 219.09375 C 171.410156 218.609375 167.691406 218.59375 163.96875 219.046875 C 159.28125 219.46875 154.828125 221.28125 151.140625 224.203125 C 148.640625 226.171875 146.75 228.78125 145.65625 231.765625 C 144.03125 236.296875 144.015625 241.265625 145.65625 245.8125 C 146.5 248.078125 147.84375 250.09375 149.59375 251.765625 C 151.109375 253.21875 152.828125 254.46875 154.703125 255.453125 C 157.15625 256.765625 159.765625 257.78125 162.46875 258.5 C 163.359375 258.765625 164.25 259.046875 165.125 259.34375 L 166.453125 259.828125 L 166.828125 259.984375 C 168.140625 260.453125 169.359375 261.203125 170.359375 262.171875 C 171.0625 262.828125 171.609375 263.640625 171.9375 264.53125 C 172.15625 265.367188 172.164062 266.207031 171.953125 267.046875 C 171.742188 267.714844 171.410156 268.316406 170.960938 268.851562 C 170.511719 269.386719 169.980469 269.816406 169.359375 270.140625 C 168.003906 270.832031 166.570312 271.28125 165.0625 271.484375 C 162.851562 271.828125 160.625 271.9375 158.390625 271.8125 C 155.46875 271.582031 152.566406 271.199219 149.6875 270.65625 C 148.1875 270.332031 146.691406 269.980469 145.203125 269.609375 Z M 106.015625 285.0625 L 122.421875 285.0625 L 122.421875 219.953125 L 106.015625 219.953125 Z M 296.046875 239.1875 C 296.480469 238.832031 296.933594 238.5 297.398438 238.191406 C 297.867188 237.882812 298.347656 237.597656 298.84375 237.332031 C 299.339844 237.070312 299.847656 236.832031 300.363281 236.621094 C 300.882812 236.410156 301.410156 236.222656 301.949219 236.0625 C 302.484375 235.902344 303.03125 235.765625 303.578125 235.660156 C 304.128906 235.550781 304.683594 235.472656 305.242188 235.417969 C 305.800781 235.367188 306.359375 235.339844 306.921875 235.34375 C 307.480469 235.347656 308.039062 235.375 308.597656 235.433594 C 309.15625 235.488281 309.707031 235.574219 310.257812 235.6875 C 310.808594 235.796875 311.351562 235.9375 311.886719 236.101562 C 312.421875 236.265625 312.949219 236.457031 313.464844 236.671875 C 313.980469 236.890625 314.488281 237.132812 314.980469 237.398438 C 315.472656 237.664062 315.953125 237.953125 316.417969 238.265625 C 316.882812 238.582031 317.332031 238.917969 317.761719 239.273438 C 318.195312 239.632812 318.609375 240.007812 319.003906 240.40625 C 319.398438 240.804688 319.769531 241.222656 320.125 241.65625 C 320.480469 242.089844 320.8125 242.542969 321.121094 243.007812 C 321.433594 243.476562 321.71875 243.957031 321.984375 244.449219 C 322.246094 244.945312 322.484375 245.453125 322.699219 245.972656 C 322.910156 246.488281 323.097656 247.019531 323.257812 247.554688 C 323.421875 248.09375 323.554688 248.636719 323.664062 249.1875 C 323.769531 249.734375 323.851562 250.289062 323.90625 250.847656 C 323.957031 251.40625 323.984375 251.964844 323.980469 252.527344 C 323.980469 253.085938 323.949219 253.644531 323.894531 254.203125 C 323.835938 254.761719 323.753906 255.316406 323.640625 255.867188 C 323.53125 256.414062 323.390625 256.957031 323.226562 257.492188 C 323.0625 258.03125 322.871094 258.554688 322.65625 259.074219 C 322.4375 259.589844 322.199219 260.09375 321.929688 260.589844 C 321.664062 261.082031 321.375 261.5625 321.0625 262.027344 C 320.75 262.492188 320.414062 262.941406 320.054688 263.371094 C 319.699219 263.804688 319.320312 264.21875 318.921875 264.613281 C 318.523438 265.007812 318.105469 265.378906 317.671875 265.734375 L 317.40625 265.953125 C 316.964844 266.289062 316.511719 266.605469 316.042969 266.898438 C 315.570312 267.191406 315.089844 267.460938 314.59375 267.707031 C 314.09375 267.953125 313.589844 268.175781 313.070312 268.371094 C 312.554688 268.566406 312.027344 268.738281 311.492188 268.886719 C 310.957031 269.03125 310.417969 269.148438 309.871094 269.242188 C 309.324219 269.335938 308.777344 269.402344 308.222656 269.445312 C 307.671875 269.484375 307.117188 269.496094 306.566406 269.484375 C 306.011719 269.46875 305.460938 269.429688 304.910156 269.363281 C 304.359375 269.292969 303.8125 269.203125 303.273438 269.082031 C 302.734375 268.960938 302.199219 268.816406 301.671875 268.644531 C 301.144531 268.472656 300.628906 268.273438 300.121094 268.050781 C 299.613281 267.832031 299.117188 267.585938 298.632812 267.3125 C 298.152344 267.042969 297.679688 266.75 297.226562 266.433594 C 296.769531 266.121094 296.332031 265.78125 295.910156 265.425781 C 295.488281 265.066406 295.082031 264.6875 294.699219 264.289062 C 294.3125 263.894531 293.945312 263.476562 293.601562 263.046875 C 293.253906 262.613281 292.929688 262.164062 292.628906 261.699219 C 292.328125 261.234375 292.046875 260.757812 291.792969 260.265625 C 291.539062 259.773438 291.304688 259.269531 291.097656 258.757812 C 290.890625 258.242188 290.710938 257.722656 290.554688 257.1875 C 290.398438 256.65625 290.269531 256.121094 290.164062 255.574219 C 290.0625 255.03125 289.984375 254.484375 289.933594 253.933594 C 289.882812 253.378906 289.859375 252.828125 289.859375 252.273438 C 289.863281 251.71875 289.894531 251.167969 289.949219 250.617188 C 290.007812 250.066406 290.089844 249.519531 290.199219 248.976562 C 290.308594 248.433594 290.445312 247.894531 290.605469 247.367188 C 290.769531 246.835938 290.953125 246.316406 291.167969 245.804688 C 291.378906 245.292969 291.617188 244.792969 291.875 244.304688 C 292.136719 243.816406 292.421875 243.339844 292.726562 242.878906 C 293.035156 242.417969 293.363281 241.972656 293.710938 241.542969 C 294.0625 241.113281 294.433594 240.703125 294.824219 240.308594 C 295.210938 239.914062 295.621094 239.542969 296.046875 239.1875 M 272.21875 252.53125 C 272.238281 253.796875 272.328125 255.058594 272.488281 256.316406 C 272.648438 257.574219 272.875 258.816406 273.175781 260.046875 C 273.472656 261.277344 273.835938 262.488281 274.269531 263.679688 C 274.699219 264.871094 275.199219 266.035156 275.757812 267.171875 C 276.320312 268.304688 276.941406 269.40625 277.625 270.472656 C 278.308594 271.542969 279.046875 272.566406 279.84375 273.550781 C 280.640625 274.535156 281.492188 275.472656 282.390625 276.363281 C 283.292969 277.253906 284.238281 278.09375 285.234375 278.878906 C 286.226562 279.664062 287.261719 280.390625 288.335938 281.0625 C 289.410156 281.734375 290.519531 282.34375 291.660156 282.890625 C 292.804688 283.4375 293.972656 283.921875 295.167969 284.339844 C 296.363281 284.757812 297.578125 285.109375 298.8125 285.390625 C 300.046875 285.675781 301.292969 285.890625 302.554688 286.035156 C 303.8125 286.179688 305.074219 286.253906 306.339844 286.261719 C 307.609375 286.265625 308.871094 286.199219 310.128906 286.066406 C 311.390625 285.929688 312.636719 285.726562 313.875 285.453125 C 315.53125 285.140625 317.152344 284.703125 318.742188 284.144531 C 320.332031 283.585938 321.871094 282.910156 323.359375 282.121094 C 324.847656 281.328125 326.265625 280.429688 327.617188 279.425781 C 328.96875 278.417969 330.238281 277.316406 331.421875 276.117188 C 332.605469 274.921875 333.695312 273.640625 334.6875 272.277344 C 335.675781 270.917969 336.5625 269.488281 337.335938 267.992188 C 338.109375 266.496094 338.769531 264.949219 339.3125 263.355469 C 339.851562 261.757812 340.269531 260.132812 340.566406 258.472656 C 340.863281 256.8125 341.03125 255.140625 341.074219 253.457031 C 341.117188 251.773438 341.03125 250.09375 340.820312 248.425781 C 340.609375 246.753906 340.273438 245.105469 339.8125 243.484375 C 339.351562 241.863281 338.773438 240.289062 338.074219 238.753906 C 337.375 237.222656 336.566406 235.75 335.644531 234.339844 C 334.722656 232.929688 333.699219 231.59375 332.578125 230.339844 C 331.457031 229.082031 330.246094 227.917969 328.945312 226.84375 C 327.644531 225.773438 326.273438 224.804688 324.828125 223.9375 C 323.542969 223.140625 322.207031 222.433594 320.828125 221.8125 C 319.445312 221.195312 318.03125 220.667969 316.582031 220.234375 C 315.132812 219.800781 313.660156 219.460938 312.167969 219.222656 C 310.671875 218.980469 309.171875 218.839844 307.65625 218.796875 C 306.144531 218.757812 304.636719 218.8125 303.132812 218.96875 C 301.625 219.125 300.136719 219.378906 298.667969 219.734375 C 297.195312 220.085938 295.753906 220.53125 294.339844 221.074219 C 292.929688 221.617188 291.558594 222.25 290.226562 222.972656 C 288.898438 223.695312 287.621094 224.5 286.398438 225.390625 C 285.175781 226.28125 284.015625 227.25 282.917969 228.292969 C 281.824219 229.335938 280.800781 230.445312 279.851562 231.621094 C 278.902344 232.800781 278.03125 234.035156 277.246094 235.328125 C 276.457031 236.621094 275.757812 237.957031 275.148438 239.34375 C 274.539062 240.726562 274.019531 242.144531 273.59375 243.597656 C 273.171875 245.050781 272.84375 246.523438 272.613281 248.019531 C 272.382812 249.515625 272.25 251.019531 272.21875 252.53125 M 358.765625 167.625 C 358.789062 168.144531 358.859375 168.652344 358.980469 169.160156 C 359.101562 169.664062 359.269531 170.152344 359.484375 170.625 C 359.695312 171.09375 359.953125 171.542969 360.253906 171.964844 C 360.554688 172.390625 360.890625 172.78125 361.265625 173.136719 C 361.640625 173.496094 362.042969 173.816406 362.480469 174.097656 C 362.917969 174.378906 363.375 174.617188 363.855469 174.808594 C 364.335938 175 364.832031 175.148438 365.339844 175.246094 C 365.851562 175.34375 366.363281 175.394531 366.882812 175.394531 C 367.402344 175.394531 367.914062 175.34375 368.425781 175.246094 C 368.933594 175.148438 369.429688 175 369.910156 174.808594 C 370.390625 174.617188 370.847656 174.378906 371.285156 174.097656 C 371.722656 173.816406 372.125 173.496094 372.5 173.136719 C 372.875 172.78125 373.210938 172.390625 373.511719 171.964844 C 373.8125 171.542969 374.070312 171.09375 374.28125 170.625 C 374.496094 170.152344 374.664062 169.664062 374.785156 169.160156 C 374.90625 168.652344 374.976562 168.144531 375 167.625 L 375 149.578125 C 374.976562 149.058594 374.90625 148.550781 374.785156 148.042969 C 374.664062 147.539062 374.496094 147.050781 374.28125 146.578125 C 374.070312 146.109375 373.8125 145.660156 373.511719 145.238281 C 373.210938 144.8125 372.875 144.421875 372.5 144.066406 C 372.125 143.707031 371.722656 143.386719 371.285156 143.105469 C 370.847656 142.824219 370.390625 142.585938 369.910156 142.394531 C 369.429688 142.203125 368.933594 142.054688 368.425781 141.957031 C 367.914062 141.859375 367.402344 141.808594 366.882812 141.808594 C 366.363281 141.808594 365.851562 141.859375 365.339844 141.957031 C 364.832031 142.054688 364.335938 142.203125 363.855469 142.394531 C 363.375 142.585938 362.917969 142.824219 362.480469 143.105469 C 362.042969 143.386719 361.640625 143.707031 361.265625 144.066406 C 360.890625 144.421875 360.554688 144.8125 360.253906 145.238281 C 359.953125 145.660156 359.695312 146.109375 359.484375 146.578125 C 359.269531 147.050781 359.101562 147.539062 358.980469 148.042969 C 358.859375 148.550781 358.789062 149.058594 358.765625 149.578125 L 358.765625 167.625 M 314.328125 167.625 C 314.367188 168.132812 314.453125 168.632812 314.585938 169.125 C 314.71875 169.617188 314.894531 170.09375 315.113281 170.550781 C 315.335938 171.011719 315.597656 171.445312 315.902344 171.855469 C 316.203125 172.265625 316.542969 172.644531 316.917969 172.988281 C 317.289062 173.335938 317.691406 173.644531 318.125 173.914062 C 318.554688 174.1875 319.007812 174.414062 319.484375 174.601562 C 319.957031 174.785156 320.445312 174.925781 320.945312 175.019531 C 321.445312 175.117188 321.953125 175.164062 322.460938 175.164062 C 322.96875 175.164062 323.476562 175.117188 323.976562 175.019531 C 324.476562 174.925781 324.964844 174.785156 325.4375 174.601562 C 325.914062 174.414062 326.367188 174.1875 326.796875 173.914062 C 327.230469 173.644531 327.632812 173.335938 328.003906 172.988281 C 328.378906 172.644531 328.71875 172.265625 329.019531 171.855469 C 329.324219 171.445312 329.585938 171.011719 329.808594 170.550781 C 330.027344 170.09375 330.207031 169.617188 330.335938 169.125 C 330.46875 168.632812 330.554688 168.132812 330.59375 167.625 L 330.59375 127.171875 C 330.5625 126.660156 330.484375 126.15625 330.355469 125.65625 C 330.226562 125.160156 330.054688 124.679688 329.835938 124.214844 C 329.617188 123.75 329.359375 123.308594 329.058594 122.894531 C 328.757812 122.480469 328.417969 122.09375 328.042969 121.742188 C 327.671875 121.390625 327.265625 121.078125 326.832031 120.804688 C 326.398438 120.527344 325.945312 120.296875 325.46875 120.105469 C 324.988281 119.917969 324.5 119.777344 323.996094 119.679688 C 323.492188 119.582031 322.980469 119.535156 322.46875 119.535156 C 321.957031 119.535156 321.445312 119.582031 320.941406 119.679688 C 320.4375 119.777344 319.949219 119.917969 319.46875 120.105469 C 318.992188 120.296875 318.539062 120.527344 318.105469 120.804688 C 317.671875 121.078125 317.265625 121.390625 316.894531 121.742188 C 316.519531 122.09375 316.179688 122.480469 315.878906 122.894531 C 315.578125 123.308594 315.320312 123.75 315.101562 124.214844 C 314.882812 124.679688 314.710938 125.160156 314.582031 125.65625 C 314.453125 126.15625 314.375 126.660156 314.34375 127.171875 L 314.34375 167.625 M 269.234375 183.921875 C 269.273438 184.429688 269.359375 184.929688 269.492188 185.417969 C 269.621094 185.910156 269.800781 186.382812 270.019531 186.84375 C 270.242188 187.300781 270.503906 187.734375 270.804688 188.144531 C 271.105469 188.550781 271.445312 188.929688 271.816406 189.273438 C 272.191406 189.621094 272.59375 189.929688 273.023438 190.199219 C 273.453125 190.46875 273.90625 190.699219 274.378906 190.882812 C 274.851562 191.070312 275.339844 191.207031 275.839844 191.304688 C 276.339844 191.398438 276.84375 191.445312 277.351562 191.445312 C 277.859375 191.445312 278.363281 191.398438 278.863281 191.304688 C 279.363281 191.207031 279.851562 191.070312 280.324219 190.882812 C 280.796875 190.699219 281.25 190.46875 281.679688 190.199219 C 282.109375 189.929688 282.511719 189.621094 282.886719 189.273438 C 283.257812 188.929688 283.597656 188.550781 283.898438 188.144531 C 284.199219 187.734375 284.460938 187.300781 284.683594 186.84375 C 284.902344 186.382812 285.082031 185.910156 285.210938 185.417969 C 285.34375 184.929688 285.429688 184.429688 285.46875 183.921875 L 285.46875 96.40625 C 285.445312 95.886719 285.375 95.378906 285.253906 94.871094 C 285.132812 94.367188 284.964844 93.878906 284.75 93.40625 C 284.539062 92.9375 284.28125 92.488281 283.980469 92.066406 C 283.679688 91.640625 283.34375 91.25 282.96875 90.894531 C 282.59375 90.535156 282.191406 90.214844 281.753906 89.933594 C 281.316406 89.652344 280.859375 89.414062 280.378906 89.222656 C 279.898438 89.027344 279.402344 88.882812 278.894531 88.785156 C 278.382812 88.6875 277.871094 88.636719 277.351562 88.636719 C 276.832031 88.636719 276.320312 88.6875 275.808594 88.785156 C 275.300781 88.882812 274.804688 89.027344 274.324219 89.222656 C 273.84375 89.414062 273.386719 89.652344 272.949219 89.933594 C 272.511719 90.214844 272.109375 90.535156 271.734375 90.894531 C 271.359375 91.25 271.023438 91.640625 270.722656 92.066406 C 270.421875 92.488281 270.164062 92.9375 269.953125 93.40625 C 269.738281 93.878906 269.570312 94.367188 269.449219 94.871094 C 269.328125 95.378906 269.257812 95.886719 269.234375 96.40625 L 269.234375 183.921875 M 224.890625 167.625 C 224.921875 168.136719 225 168.640625 225.128906 169.140625 C 225.257812 169.636719 225.429688 170.117188 225.648438 170.582031 C 225.867188 171.046875 226.125 171.488281 226.425781 171.902344 C 226.730469 172.316406 227.066406 172.699219 227.441406 173.050781 C 227.816406 173.402344 228.21875 173.71875 228.652344 173.992188 C 229.085938 174.269531 229.539062 174.5 230.015625 174.6875 C 230.496094 174.878906 230.984375 175.019531 231.488281 175.117188 C 231.992188 175.214844 232.503906 175.261719 233.015625 175.261719 C 233.527344 175.261719 234.039062 175.214844 234.542969 175.117188 C 235.046875 175.019531 235.535156 174.878906 236.015625 174.6875 C 236.492188 174.5 236.945312 174.269531 237.378906 173.992188 C 237.8125 173.71875 238.214844 173.402344 238.589844 173.050781 C 238.964844 172.699219 239.300781 172.316406 239.605469 171.902344 C 239.90625 171.488281 240.164062 171.046875 240.382812 170.582031 C 240.601562 170.117188 240.773438 169.636719 240.902344 169.140625 C 241.027344 168.640625 241.109375 168.136719 241.140625 167.625 L 241.140625 127.171875 C 241.117188 126.652344 241.046875 126.144531 240.925781 125.636719 C 240.804688 125.132812 240.636719 124.644531 240.421875 124.171875 C 240.210938 123.703125 239.953125 123.253906 239.652344 122.832031 C 239.351562 122.40625 239.015625 122.015625 238.640625 121.660156 C 238.265625 121.300781 237.863281 120.980469 237.425781 120.699219 C 236.988281 120.417969 236.53125 120.179688 236.050781 119.988281 C 235.570312 119.792969 235.074219 119.648438 234.566406 119.550781 C 234.054688 119.453125 233.542969 119.402344 233.023438 119.402344 C 232.503906 119.402344 231.992188 119.453125 231.480469 119.550781 C 230.972656 119.648438 230.476562 119.792969 229.996094 119.988281 C 229.515625 120.179688 229.058594 120.417969 228.621094 120.699219 C 228.183594 120.980469 227.78125 121.300781 227.40625 121.660156 C 227.03125 122.015625 226.695312 122.40625 226.394531 122.832031 C 226.09375 123.253906 225.835938 123.703125 225.625 124.171875 C 225.410156 124.644531 225.242188 125.132812 225.121094 125.636719 C 225 126.144531 224.929688 126.652344 224.90625 127.171875 L 224.90625 167.625 M 179.59375 167.625 C 179.644531 168.125 179.738281 168.617188 179.875 169.097656 C 180.015625 169.578125 180.199219 170.046875 180.425781 170.492188 C 180.652344 170.941406 180.914062 171.367188 181.21875 171.765625 C 181.523438 172.164062 181.859375 172.53125 182.234375 172.871094 C 182.605469 173.207031 183.003906 173.507812 183.429688 173.769531 C 183.859375 174.035156 184.308594 174.257812 184.773438 174.4375 C 185.242188 174.617188 185.722656 174.753906 186.21875 174.847656 C 186.710938 174.9375 187.210938 174.984375 187.710938 174.984375 C 188.214844 174.984375 188.710938 174.9375 189.203125 174.847656 C 189.699219 174.753906 190.179688 174.617188 190.648438 174.4375 C 191.113281 174.257812 191.5625 174.035156 191.992188 173.769531 C 192.417969 173.507812 192.816406 173.207031 193.1875 172.871094 C 193.5625 172.53125 193.898438 172.164062 194.203125 171.765625 C 194.507812 171.367188 194.769531 170.941406 194.996094 170.492188 C 195.222656 170.046875 195.40625 169.578125 195.546875 169.097656 C 195.683594 168.617188 195.777344 168.125 195.828125 167.625 L 195.828125 149.578125 C 195.804688 149.058594 195.734375 148.550781 195.613281 148.042969 C 195.492188 147.539062 195.324219 147.050781 195.109375 146.578125 C 194.898438 146.109375 194.640625 145.660156 194.339844 145.238281 C 194.039062 144.8125 193.703125 144.421875 193.328125 144.066406 C 192.953125 143.707031 192.550781 143.386719 192.113281 143.105469 C 191.675781 142.824219 191.21875 142.585938 190.738281 142.394531 C 190.257812 142.203125 189.761719 142.054688 189.253906 141.957031 C 188.742188 141.859375 188.230469 141.808594 187.710938 141.808594 C 187.191406 141.808594 186.679688 141.859375 186.167969 141.957031 C 185.660156 142.054688 185.164062 142.203125 184.683594 142.394531 C 184.203125 142.585938 183.746094 142.824219 183.308594 143.105469 C 182.871094 143.386719 182.46875 143.707031 182.09375 144.066406 C 181.71875 144.421875 181.382812 144.8125 181.082031 145.238281 C 180.78125 145.660156 180.523438 146.109375 180.3125 146.578125 C 180.097656 147.050781 179.929688 147.539062 179.808594 148.042969 C 179.6875 148.550781 179.617188 149.058594 179.59375 149.578125 L 179.59375 167.625 M 134.75 167.625 C 134.773438 168.144531 134.84375 168.652344 134.964844 169.160156 C 135.085938 169.664062 135.253906 170.152344 135.46875 170.625 C 135.679688 171.09375 135.9375 171.542969 136.238281 171.964844 C 136.539062 172.390625 136.875 172.78125 137.25 173.136719 C 137.625 173.496094 138.027344 173.816406 138.464844 174.097656 C 138.902344 174.378906 139.359375 174.617188 139.839844 174.808594 C 140.320312 175.003906 140.816406 175.148438 141.324219 175.246094 C 141.835938 175.34375 142.347656 175.394531 142.867188 175.394531 C 143.386719 175.394531 143.898438 175.34375 144.410156 175.246094 C 144.917969 175.148438 145.414062 175.003906 145.894531 174.808594 C 146.375 174.617188 146.832031 174.378906 147.269531 174.097656 C 147.707031 173.816406 148.109375 173.496094 148.484375 173.136719 C 148.859375 172.78125 149.195312 172.390625 149.496094 171.964844 C 149.796875 171.542969 150.054688 171.09375 150.265625 170.625 C 150.480469 170.152344 150.648438 169.664062 150.769531 169.160156 C 150.890625 168.652344 150.960938 168.144531 150.984375 167.625 L 150.984375 127.171875 C 150.960938 126.652344 150.890625 126.144531 150.769531 125.636719 C 150.648438 125.132812 150.480469 124.644531 150.265625 124.171875 C 150.054688 123.703125 149.796875 123.253906 149.496094 122.832031 C 149.195312 122.40625 148.859375 122.015625 148.484375 121.660156 C 148.109375 121.300781 147.707031 120.980469 147.269531 120.699219 C 146.832031 120.417969 146.375 120.179688 145.894531 119.988281 C 145.414062 119.792969 144.917969 119.648438 144.410156 119.550781 C 143.898438 119.453125 143.386719 119.402344 142.867188 119.402344 C 142.347656 119.402344 141.835938 119.453125 141.324219 119.550781 C 140.816406 119.648438 140.320312 119.792969 139.839844 119.988281 C 139.359375 120.179688 138.902344 120.417969 138.464844 120.699219 C 138.027344 120.980469 137.625 121.300781 137.25 121.660156 C 136.875 122.015625 136.539062 122.40625 136.238281 122.832031 C 135.9375 123.253906 135.679688 123.703125 135.46875 124.171875 C 135.253906 124.644531 135.085938 125.132812 134.964844 125.636719 C 134.84375 126.144531 134.773438 126.652344 134.75 127.171875 L 134.75 167.625 M 89.640625 183.921875 C 89.664062 184.441406 89.734375 184.949219 89.855469 185.457031 C 89.976562 185.960938 90.144531 186.449219 90.359375 186.921875 C 90.570312 187.390625 90.828125 187.839844 91.128906 188.261719 C 91.429688 188.6875 91.765625 189.078125 92.140625 189.433594 C 92.515625 189.792969 92.917969 190.113281 93.355469 190.394531 C 93.792969 190.675781 94.25 190.914062 94.730469 191.105469 C 95.210938 191.300781 95.707031 191.445312 96.214844 191.542969 C 96.726562 191.640625 97.238281 191.691406 97.757812 191.691406 C 98.277344 191.691406 98.789062 191.640625 99.300781 191.542969 C 99.808594 191.445312 100.304688 191.300781 100.785156 191.105469 C 101.265625 190.914062 101.722656 190.675781 102.160156 190.394531 C 102.597656 190.113281 103 189.792969 103.375 189.433594 C 103.75 189.078125 104.085938 188.6875 104.386719 188.261719 C 104.6875 187.839844 104.945312 187.390625 105.15625 186.921875 C 105.371094 186.449219 105.539062 185.960938 105.660156 185.457031 C 105.78125 184.949219 105.851562 184.441406 105.875 183.921875 L 105.875 96.40625 C 105.851562 95.886719 105.78125 95.378906 105.660156 94.871094 C 105.539062 94.367188 105.371094 93.878906 105.15625 93.40625 C 104.945312 92.9375 104.6875 92.488281 104.386719 92.066406 C 104.085938 91.640625 103.75 91.25 103.375 90.894531 C 103 90.535156 102.597656 90.214844 102.160156 89.933594 C 101.722656 89.652344 101.265625 89.414062 100.785156 89.222656 C 100.304688 89.027344 99.808594 88.882812 99.300781 88.785156 C 98.789062 88.6875 98.277344 88.636719 97.757812 88.636719 C 97.238281 88.636719 96.726562 88.6875 96.214844 88.785156 C 95.707031 88.882812 95.210938 89.027344 94.730469 89.222656 C 94.25 89.414062 93.792969 89.652344 93.355469 89.933594 C 92.917969 90.214844 92.515625 90.535156 92.140625 90.894531 C 91.765625 91.25 91.429688 91.640625 91.128906 92.066406 C 90.828125 92.488281 90.570312 92.9375 90.359375 93.40625 C 90.144531 93.878906 89.976562 94.367188 89.855469 94.871094 C 89.734375 95.378906 89.664062 95.886719 89.640625 96.40625 L 89.640625 183.921875 M 44.9375 167.625 C 44.980469 168.128906 45.070312 168.625 45.207031 169.109375 C 45.34375 169.597656 45.523438 170.066406 45.75 170.519531 C 45.972656 170.972656 46.234375 171.402344 46.539062 171.808594 C 46.84375 172.210938 47.179688 172.585938 47.554688 172.925781 C 47.925781 173.265625 48.328125 173.570312 48.757812 173.839844 C 49.1875 174.105469 49.636719 174.332031 50.105469 174.511719 C 50.578125 174.695312 51.0625 174.835938 51.558594 174.929688 C 52.054688 175.019531 52.558594 175.066406 53.0625 175.066406 C 53.566406 175.066406 54.070312 175.019531 54.566406 174.929688 C 55.0625 174.835938 55.546875 174.695312 56.019531 174.511719 C 56.488281 174.332031 56.941406 174.105469 57.367188 173.839844 C 57.796875 173.570312 58.199219 173.265625 58.570312 172.925781 C 58.945312 172.585938 59.28125 172.210938 59.585938 171.808594 C 59.890625 171.402344 60.152344 170.972656 60.375 170.519531 C 60.601562 170.066406 60.78125 169.597656 60.917969 169.109375 C 61.054688 168.625 61.144531 168.128906 61.1875 167.625 L 61.1875 127.171875 C 61.164062 126.652344 61.09375 126.144531 60.972656 125.636719 C 60.851562 125.132812 60.683594 124.644531 60.46875 124.171875 C 60.257812 123.703125 60 123.253906 59.699219 122.832031 C 59.398438 122.40625 59.0625 122.015625 58.6875 121.660156 C 58.3125 121.300781 57.910156 120.980469 57.472656 120.699219 C 57.035156 120.417969 56.578125 120.179688 56.097656 119.988281 C 55.617188 119.792969 55.121094 119.648438 54.613281 119.550781 C 54.101562 119.453125 53.589844 119.402344 53.070312 119.402344 C 52.550781 119.402344 52.039062 119.453125 51.527344 119.550781 C 51.019531 119.648438 50.523438 119.792969 50.042969 119.988281 C 49.5625 120.179688 49.105469 120.417969 48.667969 120.699219 C 48.230469 120.980469 47.828125 121.300781 47.453125 121.660156 C 47.078125 122.015625 46.742188 122.40625 46.441406 122.832031 C 46.140625 123.253906 45.882812 123.703125 45.671875 124.171875 C 45.457031 124.644531 45.289062 125.132812 45.167969 125.636719 C 45.046875 126.144531 44.976562 126.652344 44.953125 127.171875 L 44.953125 167.625 M 0 167.625 C 0.0390625 168.132812 0.125 168.632812 0.257812 169.121094 C 0.386719 169.613281 0.566406 170.085938 0.785156 170.546875 C 1.007812 171.003906 1.269531 171.4375 1.570312 171.847656 C 1.871094 172.253906 2.210938 172.632812 2.582031 172.976562 C 2.957031 173.324219 3.359375 173.632812 3.789062 173.902344 C 4.21875 174.171875 4.671875 174.402344 5.144531 174.585938 C 5.617188 174.773438 6.105469 174.914062 6.605469 175.007812 C 7.105469 175.101562 7.609375 175.148438 8.117188 175.148438 C 8.625 175.148438 9.128906 175.101562 9.628906 175.007812 C 10.128906 174.914062 10.617188 174.773438 11.089844 174.585938 C 11.5625 174.402344 12.015625 174.171875 12.445312 173.902344 C 12.875 173.632812 13.277344 173.324219 13.652344 172.976562 C 14.023438 172.632812 14.363281 172.253906 14.664062 171.847656 C 14.964844 171.4375 15.226562 171.003906 15.449219 170.546875 C 15.667969 170.085938 15.847656 169.613281 15.976562 169.121094 C 16.109375 168.632812 16.195312 168.132812 16.234375 167.625 L 16.234375 149.578125 C 16.210938 149.058594 16.140625 148.550781 16.019531 148.042969 C 15.898438 147.539062 15.730469 147.050781 15.515625 146.578125 C 15.304688 146.109375 15.046875 145.660156 14.746094 145.238281 C 14.445312 144.8125 14.109375 144.421875 13.734375 144.066406 C 13.359375 143.707031 12.957031 143.386719 12.519531 143.105469 C 12.082031 142.824219 11.625 142.585938 11.144531 142.394531 C 10.664062 142.199219 10.167969 142.054688 9.660156 141.957031 C 9.148438 141.859375 8.636719 141.808594 8.117188 141.808594 C 7.597656 141.808594 7.085938 141.859375 6.574219 141.957031 C 6.066406 142.054688 5.570312 142.199219 5.089844 142.394531 C 4.609375 142.585938 4.152344 142.824219 3.714844 143.105469 C 3.277344 143.386719 2.875 143.707031 2.5 144.066406 C 2.125 144.421875 1.789062 144.8125 1.488281 145.238281 C 1.1875 145.660156 0.929688 146.109375 0.71875 146.578125 C 0.503906 147.050781 0.335938 147.539062 0.214844 148.042969 C 0.09375 148.550781 0.0234375 149.058594 0 149.578125 L 0 167.625 " fill-opacity="1" fill-rule="nonzero"/></svg>