<svg xmlns="http://www.w3.org/2000/svg" xmlns:xlink="http://www.w3.org/1999/xlink" width="500" zoomAndPan="magnify" viewBox="0 0 375 374.999991" height="500" preserveAspectRatio="xMidYMid meet" version="1.0"><path fill="#000000" d="M 0 338.328125 C 0 338.328125 49.28125 332.78125 87.6875 301.078125 C 124.234375 270.921875 137.453125 244.953125 146.59375 215.515625 C 155.71875 186.0625 157.078125 115.21875 157.078125 94.203125 L 157.078125 36.65625 L 134.34375 36.65625 L 134.34375 57.984375 C 133.96875 89.875 131.21875 150.453125 116.609375 189.921875 C 81.296875 285.03125 0 293.359375 0 293.359375 Z M 375 338.328125 C 375 338.328125 325.71875 332.78125 287.34375 301.078125 C 250.75 270.921875 237.546875 244.953125 228.40625 215.515625 C 219.296875 186.0625 217.921875 115.21875 217.921875 94.203125 L 217.921875 36.65625 L 240.625 36.65625 L 240.640625 57.984375 C 241.015625 89.875 243.796875 150.453125 258.421875 189.921875 C 293.703125 285.03125 374.984375 293.359375 374.984375 293.359375 Z M 166.546875 36.6875 L 208.5 36.6875 L 208.5 338.34375 L 166.5625 338.34375 Z M 166.546875 36.6875 " fill-opacity="1" fill-rule="nonzero"/></svg>