<svg xmlns="http://www.w3.org/2000/svg" xmlns:xlink="http://www.w3.org/1999/xlink" width="500" zoomAndPan="magnify" viewBox="0 0 375 374.999991" height="500" preserveAspectRatio="xMidYMid meet" version="1.0"><path fill="#000000" d="M 373.5 168.5625 L 373.5 148.78125 L 300.75 148.78125 C 285.5625 148.78125 278.71875 158.15625 277.59375 167.25 L 277.59375 167.53125 L 277.59375 148.78125 L 256.21875 148.78125 L 256.21875 168.5625 Z M 277.5 175.6875 L 256.125 174.46875 L 256.125 197.25 C 256.125 204.375 252.5625 206.53125 240.1875 206.53125 L 223.125 206.53125 C 212.90625 206.53125 208.59375 203.625 208.59375 197.25 L 208.59375 172.3125 L 186.9375 170.71875 L 186.9375 199.03125 L 186.46875 199.03125 C 185.25 190.78125 182.15625 181.21875 161.53125 179.8125 L 93.75 175.3125 C 93.75 185.71875 101.15625 191.90625 112.78125 193.125 L 160.03125 197.90625 C 163.78125 198.1875 166.5 199.3125 166.5 202.40625 C 166.5 205.78125 163.6875 206.15625 159.375 206.15625 L 92.90625 206.15625 L 92.90625 175.3125 L 71.25 173.90625 L 71.25 226.21875 L 159.46875 226.21875 C 179.15625 226.21875 185.4375 216 186.375 207.46875 L 186.84375 207.46875 C 189.28125 220.96875 201.09375 226.21875 221.0625 226.21875 L 243.09375 226.21875 C 266.4375 226.21875 277.5 219.09375 277.5 202.40625 Z M 346.21875 179.71875 L 278.4375 175.6875 C 278.4375 186.09375 285.28125 193.03125 296.90625 193.96875 L 345.1875 197.71875 C 348.9375 198 351.1875 198.9375 351.1875 202.03125 C 351.1875 204.9375 348.5625 206.0625 343.125 206.0625 L 277.3125 206.0625 L 277.3125 226.21875 L 344.53125 226.21875 C 365.71875 226.21875 375 218.8125 375 201.9375 C 375 186.75 366.65625 181.03125 346.21875 179.71875 Z M 186.9375 148.78125 L 208.59375 148.78125 L 208.59375 168.5625 L 186.9375 168.5625 Z M 59.34375 172.96875 L 35.8125 170.625 L 0 226.21875 L 26.34375 226.21875 Z M 183 148.78125 L 116.90625 148.78125 C 101.53125 148.78125 94.78125 158.34375 93.1875 167.53125 L 93.1875 148.78125 L 56.53125 148.78125 C 51.375 148.78125 48.9375 150.375 46.5 153.9375 L 36.375 168.5625 L 183 168.5625 Z M 183 148.78125 " fill-opacity="1" fill-rule="nonzero"/></svg>