<svg xmlns="http://www.w3.org/2000/svg" xmlns:xlink="http://www.w3.org/1999/xlink" width="500" zoomAndPan="magnify" viewBox="0 0 375 374.999991" height="500" preserveAspectRatio="xMidYMid meet" version="1.0"><path fill="#000000" d="M 310.125 122.625 C 294.625 122.625 280.40625 128.0625 269.25 137.125 C 258.09375 128.0625 243.875 122.625 228.375 122.625 C 212.875 122.625 198.65625 128.0625 187.5 137.125 C 176.34375 128.0625 162.125 122.625 146.625 122.625 C 131.125 122.625 116.90625 128.0625 105.75 137.125 C 94.59375 128.0625 80.375 122.625 64.875 122.625 C 29.046875 122.625 0 151.671875 0 187.5 C 0 223.328125 29.046875 252.375 64.875 252.375 C 80.375 252.375 94.59375 246.9375 105.75 237.875 C 116.90625 246.9375 131.125 252.375 146.625 252.375 C 162.125 252.375 176.34375 246.9375 187.5 237.875 C 198.65625 246.9375 212.875 252.375 228.375 252.375 C 243.875 252.375 258.09375 246.9375 269.25 237.875 C 280.40625 246.9375 294.625 252.375 310.125 252.375 C 345.953125 252.375 375 223.328125 375 187.5 C 375 151.671875 345.953125 122.625 310.125 122.625 Z M 269.25 216.65625 C 263.375 208.4375 259.90625 198.375 259.90625 187.5 C 259.90625 176.625 263.375 166.5625 269.25 158.34375 C 275.125 166.5625 278.59375 176.625 278.59375 187.5 C 278.59375 198.375 275.125 208.4375 269.25 216.65625 Z M 187.5 216.65625 C 181.625 208.4375 178.15625 198.375 178.15625 187.5 C 178.15625 176.625 181.625 166.5625 187.5 158.34375 C 193.375 166.5625 196.84375 176.625 196.84375 187.5 C 196.84375 198.375 193.375 208.4375 187.5 216.65625 Z M 105.75 216.65625 C 99.875 208.4375 96.40625 198.375 96.40625 187.5 C 96.40625 176.625 99.875 166.5625 105.75 158.34375 C 111.625 166.5625 115.09375 176.625 115.09375 187.5 C 115.09375 198.375 111.625 208.4375 105.75 216.65625 Z M 14.65625 187.5 C 14.65625 159.765625 37.140625 137.28125 64.875 137.28125 C 76.375 137.28125 86.96875 141.15625 95.4375 147.671875 C 86.875 158.65625 81.75 172.484375 81.75 187.5 C 81.75 202.515625 86.875 216.34375 95.4375 227.328125 C 86.96875 233.828125 76.375 237.71875 64.875 237.71875 C 37.140625 237.71875 14.65625 215.234375 14.65625 187.5 Z M 116.0625 227.328125 C 124.625 216.34375 129.75 202.515625 129.75 187.5 C 129.75 172.484375 124.625 158.65625 116.0625 147.671875 C 124.53125 141.171875 135.125 137.28125 146.625 137.28125 C 158.125 137.28125 168.71875 141.15625 177.1875 147.671875 C 168.609375 158.671875 163.5 172.484375 163.5 187.5 C 163.5 202.515625 168.625 216.34375 177.1875 227.328125 C 168.71875 233.828125 158.125 237.71875 146.625 237.71875 C 135.125 237.71875 124.53125 233.84375 116.0625 227.328125 Z M 197.8125 227.328125 C 206.390625 216.328125 211.5 202.515625 211.5 187.5 C 211.5 172.484375 206.375 158.65625 197.8125 147.65625 C 206.28125 141.15625 216.875 137.265625 228.375 137.265625 C 239.875 137.265625 250.46875 141.140625 258.9375 147.65625 C 250.359375 158.65625 245.25 172.46875 245.25 187.484375 C 245.25 202.5 250.375 216.328125 258.9375 227.3125 C 250.46875 233.8125 239.875 237.703125 228.375 237.703125 C 216.875 237.71875 206.28125 233.84375 197.8125 227.328125 Z M 310.125 237.71875 C 298.625 237.71875 288.03125 233.84375 279.5625 227.328125 C 288.125 216.328125 293.25 202.515625 293.25 187.5 C 293.25 172.484375 288.125 158.65625 279.5625 147.671875 C 288.03125 141.171875 298.625 137.28125 310.125 137.28125 C 337.859375 137.28125 360.34375 159.765625 360.34375 187.5 C 360.34375 215.234375 337.859375 237.71875 310.125 237.71875 Z M 310.125 237.71875 " fill-opacity="1" fill-rule="nonzero"/></svg>