<svg xmlns="http://www.w3.org/2000/svg" xmlns:xlink="http://www.w3.org/1999/xlink" width="500" zoomAndPan="magnify" viewBox="0 0 375 374.999991" height="500" preserveAspectRatio="xMidYMid meet" version="1.0"><path fill="#000000" d="M 172.84375 176.5 C 172.84375 188.0625 166.765625 194.640625 157.328125 196.875 C 157.21875 196.875 172.4375 220.796875 172.4375 220.796875 L 154 220.796875 L 131.703125 185.21875 L 147.421875 185.21875 C 154.21875 185.21875 156.75 181.46875 156.75 176.90625 C 156.75 172.453125 154.3125 168.59375 147.53125 168.59375 L 129.15625 168.59375 L 129.15625 220.796875 L 112.9375 220.796875 L 112.9375 154.203125 L 147.40625 154.203125 C 164.53125 154.203125 172.84375 163.828125 172.84375 176.5 M 85.765625 220.796875 L 101.984375 220.796875 L 101.984375 154.203125 L 85.765625 154.203125 Z M 33.96875 154.203125 L 0 220.796875 L 18.25 220.796875 L 23.75 209.640625 L 51.09375 209.640625 L 44.296875 195.65625 L 30.65625 195.65625 L 40.75 175.171875 L 40.953125 175.171875 L 63.65625 220.796875 L 82.3125 220.796875 L 48.359375 154.203125 Z M 232.0625 186.234375 C 238.453125 188.46875 242.8125 194.34375 242.8125 202.15625 C 242.8125 213.40625 233.796875 220.8125 220 220.8125 L 180.5625 220.8125 L 180.5625 154.203125 L 218.484375 154.203125 C 231.96875 154.203125 239.984375 161.40625 239.984375 172.140625 C 239.96875 178.828125 237.234375 183.390625 232.0625 186.234375 M 196.78125 180.046875 L 218.375 180.046875 C 218.761719 180.054688 219.148438 180.023438 219.53125 179.957031 C 219.910156 179.886719 220.28125 179.777344 220.644531 179.632812 C 221.003906 179.488281 221.34375 179.3125 221.667969 179.097656 C 221.992188 178.882812 222.292969 178.636719 222.566406 178.363281 C 222.839844 178.089844 223.085938 177.789062 223.300781 177.464844 C 223.515625 177.140625 223.691406 176.800781 223.835938 176.441406 C 223.980469 176.078125 224.089844 175.707031 224.160156 175.328125 C 224.226562 174.945312 224.257812 174.558594 224.25 174.171875 C 224.257812 173.789062 224.230469 173.40625 224.164062 173.027344 C 224.097656 172.648438 223.992188 172.28125 223.851562 171.921875 C 223.707031 171.566406 223.535156 171.226562 223.324219 170.902344 C 223.113281 170.582031 222.875 170.28125 222.605469 170.007812 C 222.335938 169.734375 222.039062 169.492188 221.722656 169.277344 C 221.402344 169.0625 221.066406 168.878906 220.710938 168.734375 C 220.355469 168.585938 219.988281 168.476562 219.613281 168.402344 C 219.234375 168.328125 218.851562 168.292969 218.46875 168.296875 L 196.78125 168.296875 Z M 218.875 206.8125 C 219.332031 206.828125 219.789062 206.792969 220.242188 206.714844 C 220.695312 206.636719 221.132812 206.515625 221.558594 206.347656 C 221.988281 206.179688 222.394531 205.96875 222.777344 205.71875 C 223.164062 205.46875 223.519531 205.183594 223.847656 204.863281 C 224.175781 204.539062 224.464844 204.1875 224.722656 203.808594 C 224.976562 203.425781 225.191406 203.023438 225.367188 202.601562 C 225.539062 202.175781 225.671875 201.738281 225.757812 201.285156 C 225.84375 200.835938 225.882812 200.378906 225.875 199.921875 C 225.875 196.0625 222.828125 193.234375 218.875 193.234375 L 196.78125 193.234375 L 196.78125 206.8125 L 218.875 206.8125 M 294 191.40625 C 294 201.515625 289.34375 207.125 280.109375 207.125 C 270.984375 207.125 266.328125 201.515625 266.328125 191.40625 L 266.328125 154.203125 L 249.703125 154.203125 L 249.703125 190.1875 C 249.703125 210.765625 260.546875 222.21875 280.109375 222.21875 C 299.671875 222.21875 310.625 210.765625 310.625 190.1875 L 310.625 154.203125 L 294 154.203125 Z M 353.90625 180.65625 C 338.515625 176.90625 335.15625 176.546875 335.15625 172.140625 C 335.15625 168.734375 339 167.078125 345.5 167.078125 C 354.109375 167.078125 363.296875 169.234375 368.515625 172.453125 L 373.6875 158.875 C 367 155.328125 357.15625 152.796875 345.703125 152.796875 C 328.5625 152.796875 318.9375 161.3125 318.9375 172.765625 C 318.9375 185.09375 326.125 190.09375 342.65625 193.65625 C 355.53125 196.5 358.265625 198.265625 358.265625 201.875 C 358.265625 205.796875 354.71875 207.546875 347.71875 207.546875 C 343.074219 207.59375 338.496094 207.070312 333.984375 205.972656 C 329.472656 204.875 325.164062 203.238281 321.0625 201.0625 L 316.09375 215.25 C 324.109375 219.515625 336.0625 222.25 348.125 222.25 C 364.953125 222.25 374.984375 214.4375 374.984375 201.359375 C 375 190.84375 368.21875 184.109375 353.90625 180.65625 " fill-opacity="1" fill-rule="nonzero"/></svg>