<svg xmlns="http://www.w3.org/2000/svg" xmlns:xlink="http://www.w3.org/1999/xlink" width="500" zoomAndPan="magnify" viewBox="0 0 375 374.999991" height="500" preserveAspectRatio="xMidYMid meet" version="1.0"><path fill="#000000" d="M 187.5 0 C 83.953125 0 0 83.953125 0 187.5 C 0 291.046875 83.953125 375 187.5 375 C 291.046875 375 375 291.046875 375 187.5 C 375 83.953125 291.046875 0 187.5 0 Z M 187.5 12.1875 C 284.3125 12.1875 362.796875 90.671875 362.796875 187.5 C 362.796875 284.3125 284.328125 362.796875 187.5 362.796875 C 90.671875 362.796875 12.203125 284.3125 12.203125 187.5 C 12.203125 90.6875 90.6875 12.1875 187.5 12.1875 Z M 176.90625 22.03125 C 171.75 22.25 166.59375 22.6875 161.40625 23.25 L 159.734375 69.25 C 163.414062 68.628906 167.113281 68.136719 170.828125 67.78125 L 171.921875 36.71875 L 171.71875 34.578125 L 172.390625 36.609375 L 182.765625 59.875 L 192.234375 59.875 L 202.609375 36.625 L 203.234375 34.578125 L 203.078125 36.71875 L 204.171875 67.78125 C 207.796875 68.125 211.5625 68.625 215.265625 69.25 L 213.5625 23.25 C 208.410156 22.667969 203.242188 22.261719 198.0625 22.03125 L 187.859375 47.421875 L 187.5 49.296875 L 187.140625 47.421875 Z M 281.53125 50.53125 L 257.421875 88.46875 C 260.46875 90.8125 264.484375 94.265625 267.0625 96.625 L 289.765625 84.84375 L 291.203125 83.765625 L 290.125 85.234375 L 278.375 107.9375 C 280.921875 110.671875 284.59375 115.09375 286.65625 117.78125 L 324.625 93.65625 C 322.296875 90.644531 319.898438 87.683594 317.4375 84.78125 L 293.390625 100.625 L 291.75 102.0625 L 292.96875 100.265625 L 303.59375 79.078125 L 296.09375 71.578125 L 274.90625 82.203125 L 273.109375 83.421875 L 274.53125 81.765625 L 290.4375 57.71875 C 287.625 55.34375 284.953125 53.171875 281.53125 50.53125 Z M 85.9375 59.140625 C 80.3125 59.71875 75.96875 63.5625 64.171875 76.71875 C 60.082031 81.355469 56.136719 86.117188 52.34375 91 L 84.75 121.734375 C 95.484375 109.859375 99.84375 105.453125 108.3125 96.53125 C 114.296875 90.203125 117.6875 82.9375 111.6875 75.953125 C 108.4375 72.171875 102.96875 71.34375 98.40625 73.21875 L 97.96875 73.375 L 98.125 72.96875 C 98.40625 71.933594 98.53125 70.875 98.503906 69.804688 C 98.476562 68.730469 98.292969 67.683594 97.953125 66.664062 C 97.617188 65.644531 97.136719 64.691406 96.519531 63.8125 C 95.902344 62.933594 95.171875 62.164062 94.328125 61.5 C 93.140625 60.566406 91.820312 59.894531 90.367188 59.488281 C 88.914062 59.082031 87.4375 58.972656 85.9375 59.15625 Z M 86.03125 68.75 C 88.15625 68.171875 90.359375 69.6875 90.84375 71.875 C 91.34375 74.0625 89.96875 76.125 88.4375 77.84375 C 85 81.75 72.328125 95 72.328125 95 L 66.046875 89.015625 C 72.5625 81.046875 79.5 73.796875 82.640625 70.921875 C 83.597656 69.925781 84.726562 69.203125 86.03125 68.75 Z M 187.5 76.296875 C 185.796875 76.296875 184.097656 76.335938 182.398438 76.410156 C 180.699219 76.488281 179.003906 76.605469 177.308594 76.761719 C 175.613281 76.914062 173.925781 77.109375 172.238281 77.34375 C 170.554688 77.574219 168.875 77.847656 167.203125 78.15625 C 165.53125 78.464844 163.863281 78.816406 162.207031 79.199219 C 160.550781 79.585938 158.90625 80.011719 157.265625 80.472656 C 155.628906 80.933594 154.003906 81.433594 152.390625 81.972656 C 150.773438 82.507812 149.175781 83.082031 147.585938 83.691406 C 145.996094 84.300781 144.425781 84.949219 142.867188 85.628906 C 141.308594 86.3125 139.765625 87.03125 138.242188 87.785156 C 136.714844 88.535156 135.207031 89.324219 133.71875 90.148438 C 132.230469 90.96875 130.757812 91.824219 129.308594 92.714844 C 127.859375 93.605469 126.429688 94.527344 125.023438 95.484375 C 123.617188 96.4375 122.230469 97.425781 120.867188 98.445312 C 119.507812 99.464844 118.167969 100.511719 116.855469 101.59375 C 115.539062 102.675781 114.25 103.785156 112.988281 104.925781 C 111.726562 106.0625 110.488281 107.230469 109.28125 108.429688 C 108.070312 109.625 106.886719 110.847656 105.734375 112.097656 C 104.582031 113.347656 103.457031 114.625 102.363281 115.929688 C 101.269531 117.230469 100.203125 118.558594 99.171875 119.90625 C 98.136719 121.257812 97.132812 122.632812 96.164062 124.03125 C 95.195312 125.425781 94.253906 126.847656 93.351562 128.285156 C 92.445312 129.726562 91.570312 131.1875 90.734375 132.667969 C 89.894531 134.148438 89.089844 135.644531 88.320312 137.164062 C 87.550781 138.679688 86.816406 140.214844 86.117188 141.765625 C 85.417969 143.316406 84.753906 144.882812 84.128906 146.464844 C 83.5 148.046875 82.910156 149.640625 82.355469 151.25 C 81.800781 152.855469 81.285156 154.476562 80.804688 156.109375 C 80.324219 157.742188 79.882812 159.382812 79.480469 161.035156 C 79.074219 162.6875 78.707031 164.351562 78.378906 166.019531 C 78.054688 167.6875 77.761719 169.363281 77.511719 171.046875 C 77.261719 172.730469 77.046875 174.417969 76.875 176.109375 L 76.875 176.140625 C 76.65625 178.304688 76.5 180.46875 76.40625 182.640625 C 76.3125 184.8125 76.285156 186.984375 76.320312 189.15625 C 76.351562 191.332031 76.449219 193.5 76.613281 195.667969 C 76.773438 197.835938 77 199.996094 77.289062 202.148438 C 77.574219 204.304688 77.925781 206.449219 78.339844 208.582031 C 78.753906 210.714844 79.230469 212.835938 79.769531 214.941406 C 80.304688 217.046875 80.90625 219.132812 81.566406 221.203125 C 82.226562 223.273438 82.945312 225.324219 83.726562 227.351562 C 84.507812 229.382812 85.347656 231.382812 86.242188 233.363281 C 87.140625 235.34375 88.097656 237.292969 89.109375 239.21875 C 90.121094 241.140625 91.1875 243.03125 92.3125 244.894531 C 93.433594 246.753906 94.609375 248.582031 95.839844 250.371094 C 97.070312 252.164062 98.351562 253.917969 99.683594 255.632812 C 101.019531 257.351562 102.398438 259.027344 103.832031 260.664062 C 105.261719 262.300781 106.738281 263.890625 108.261719 265.441406 C 109.789062 266.988281 111.355469 268.492188 112.96875 269.949219 C 114.582031 271.40625 116.234375 272.816406 117.929688 274.175781 C 119.625 275.535156 121.355469 276.847656 123.128906 278.105469 C 124.898438 279.363281 126.707031 280.570312 128.550781 281.722656 C 130.390625 282.875 132.265625 283.972656 134.171875 285.015625 C 136.078125 286.058594 138.015625 287.046875 139.980469 287.976562 C 141.945312 288.90625 143.933594 289.777344 145.949219 290.589844 C 147.964844 291.402344 150 292.15625 152.0625 292.851562 C 154.121094 293.546875 156.199219 294.179688 158.296875 294.75 C 160.390625 295.320312 162.503906 295.832031 164.628906 296.28125 C 166.757812 296.730469 168.894531 297.113281 171.042969 297.4375 C 173.191406 297.761719 175.351562 298.019531 177.515625 298.21875 C 179.679688 298.414062 181.847656 298.546875 184.019531 298.617188 C 186.191406 298.6875 188.363281 298.691406 190.535156 298.636719 C 192.707031 298.578125 194.878906 298.457031 197.042969 298.273438 C 199.207031 298.085938 201.367188 297.839844 203.519531 297.527344 C 205.667969 297.214844 207.808594 296.84375 209.9375 296.40625 C 213.042969 295.769531 216.117188 295 219.15625 294.097656 C 222.195312 293.195312 225.191406 292.164062 228.140625 291.007812 C 231.09375 289.851562 233.988281 288.570312 236.832031 287.164062 C 239.671875 285.757812 242.449219 284.234375 245.160156 282.589844 C 247.871094 280.945312 250.507812 279.191406 253.070312 277.320312 C 255.628906 275.453125 258.105469 273.476562 260.496094 271.398438 C 262.890625 269.316406 265.1875 267.136719 267.394531 264.859375 C 269.597656 262.582031 271.703125 260.214844 273.707031 257.757812 C 275.707031 255.300781 277.601562 252.761719 279.386719 250.140625 C 281.175781 247.523438 282.84375 244.832031 284.398438 242.066406 C 285.953125 239.304688 287.390625 236.480469 288.703125 233.59375 C 290.015625 230.710938 291.203125 227.773438 292.265625 224.785156 C 293.328125 221.800781 294.261719 218.773438 295.0625 215.707031 C 295.867188 212.636719 296.535156 209.542969 297.074219 206.417969 C 297.613281 203.292969 298.015625 200.152344 298.285156 196.992188 C 298.554688 193.835938 298.6875 190.671875 298.6875 187.5 C 298.6875 185.679688 298.640625 183.863281 298.546875 182.046875 C 298.457031 180.230469 298.320312 178.414062 298.140625 176.605469 C 297.960938 174.796875 297.738281 172.992188 297.46875 171.191406 C 297.203125 169.390625 296.890625 167.601562 296.53125 165.816406 C 296.175781 164.035156 295.777344 162.257812 295.332031 160.496094 C 294.890625 158.730469 294.40625 156.976562 293.875 155.238281 C 293.347656 153.496094 292.773438 151.769531 292.160156 150.058594 C 291.546875 148.347656 290.890625 146.648438 290.195312 144.96875 C 289.496094 143.289062 288.757812 141.628906 287.980469 139.984375 C 287.203125 138.339844 286.382812 136.714844 285.527344 135.109375 C 284.667969 133.507812 283.769531 131.925781 282.835938 130.367188 C 281.898438 128.804688 280.925781 127.269531 279.914062 125.757812 C 278.902344 124.246094 277.855469 122.757812 276.773438 121.296875 C 275.6875 119.835938 274.570312 118.402344 273.414062 116.996094 C 272.261719 115.589844 271.074219 114.214844 269.851562 112.867188 C 268.628906 111.519531 267.375 110.203125 266.089844 108.917969 C 264.800781 107.628906 263.484375 106.375 262.136719 105.15625 C 260.789062 103.933594 259.414062 102.746094 258.007812 101.589844 C 256.601562 100.4375 255.167969 99.316406 253.707031 98.234375 C 252.246094 97.148438 250.757812 96.101562 249.246094 95.09375 C 247.734375 94.082031 246.195312 93.109375 244.636719 92.171875 C 243.078125 91.238281 241.496094 90.339844 239.890625 89.480469 C 238.285156 88.625 236.664062 87.804688 235.019531 87.027344 C 233.375 86.25 231.710938 85.511719 230.03125 84.816406 C 228.351562 84.117188 226.65625 83.464844 224.941406 82.851562 C 223.230469 82.234375 221.503906 81.664062 219.761719 81.136719 C 218.023438 80.605469 216.269531 80.121094 214.503906 79.679688 C 212.742188 79.234375 210.96875 78.835938 209.183594 78.480469 C 207.398438 78.125 205.609375 77.8125 203.808594 77.542969 C 202.007812 77.277344 200.203125 77.050781 198.394531 76.871094 C 196.585938 76.691406 194.769531 76.558594 192.953125 76.464844 C 191.136719 76.375 189.320312 76.328125 187.5 76.328125 Z M 100.984375 80.078125 C 101.71875 80.078125 102.484375 80.28125 103.171875 80.75 C 104.546875 81.671875 105.171875 83.25 104.828125 84.8125 C 104.421875 86.671875 102.875 88.421875 101.625 89.78125 L 85.296875 107.28125 L 78.734375 101.03125 C 78.734375 101.03125 91.03125 88.03125 95.0625 83.859375 C 96.65625 82.203125 97.6875 81.203125 98.78125 80.65625 C 99.46875 80.300781 100.195312 80.105469 100.96875 80.078125 Z M 187.5 90.90625 C 189.082031 90.90625 190.660156 90.941406 192.242188 91.015625 C 193.820312 91.09375 195.398438 91.207031 196.972656 91.363281 C 198.546875 91.515625 200.113281 91.707031 201.679688 91.9375 C 203.242188 92.167969 204.800781 92.4375 206.351562 92.742188 C 207.902344 93.050781 209.445312 93.394531 210.980469 93.78125 C 212.515625 94.164062 214.039062 94.582031 215.550781 95.039062 C 217.066406 95.5 218.566406 95.992188 220.054688 96.527344 C 221.546875 97.058594 223.019531 97.625 224.480469 98.230469 C 225.941406 98.835938 227.390625 99.472656 228.820312 100.148438 C 230.25 100.824219 231.660156 101.535156 233.054688 102.28125 C 234.449219 103.023438 235.828125 103.804688 237.183594 104.617188 C 238.539062 105.429688 239.875 106.273438 241.191406 107.152344 C 242.503906 108.03125 243.796875 108.941406 245.070312 109.882812 C 246.339844 110.824219 247.585938 111.796875 248.808594 112.796875 C 250.03125 113.800781 251.226562 114.832031 252.398438 115.894531 C 253.570312 116.957031 254.714844 118.046875 255.835938 119.164062 C 256.953125 120.285156 258.042969 121.429688 259.105469 122.601562 C 260.167969 123.773438 261.199219 124.96875 262.203125 126.191406 C 263.203125 127.414062 264.175781 128.660156 265.117188 129.929688 C 266.058594 131.203125 266.96875 132.496094 267.847656 133.808594 C 268.726562 135.125 269.570312 136.460938 270.382812 137.816406 C 271.195312 139.171875 271.976562 140.550781 272.71875 141.945312 C 273.464844 143.339844 274.175781 144.75 274.851562 146.179688 C 275.527344 147.609375 276.164062 149.058594 276.769531 150.519531 C 277.375 151.980469 277.941406 153.453125 278.472656 154.945312 C 279.007812 156.433594 279.5 157.933594 279.960938 159.449219 C 280.417969 160.960938 280.835938 162.484375 281.21875 164.019531 C 281.605469 165.554688 281.949219 167.097656 282.257812 168.648438 C 282.5625 170.199219 282.832031 171.757812 283.0625 173.320312 C 283.292969 174.886719 283.484375 176.453125 283.636719 178.027344 C 283.792969 179.601562 283.90625 181.179688 283.984375 182.757812 C 284.058594 184.339844 284.09375 185.917969 284.09375 187.5 L 187.5 187.5 L 187.5 284.09375 C 185.917969 284.09375 184.339844 284.058594 182.757812 283.984375 C 181.179688 283.90625 179.601562 283.792969 178.027344 283.636719 C 176.453125 283.484375 174.886719 283.292969 173.320312 283.0625 C 171.757812 282.832031 170.199219 282.5625 168.648438 282.257812 C 167.097656 281.949219 165.554688 281.605469 164.019531 281.21875 C 162.484375 280.835938 160.960938 280.417969 159.449219 279.960938 C 157.933594 279.5 156.433594 279.007812 154.945312 278.472656 C 153.453125 277.941406 151.980469 277.375 150.519531 276.769531 C 149.058594 276.164062 147.609375 275.527344 146.179688 274.851562 C 144.75 274.175781 143.339844 273.464844 141.945312 272.71875 C 140.550781 271.976562 139.171875 271.195312 137.816406 270.382812 C 136.460938 269.570312 135.125 268.726562 133.808594 267.847656 C 132.496094 266.96875 131.203125 266.058594 129.929688 265.117188 C 128.660156 264.175781 127.414062 263.203125 126.191406 262.203125 C 124.96875 261.199219 123.773438 260.167969 122.601562 259.105469 C 121.429688 258.042969 120.285156 256.953125 119.164062 255.835938 C 118.046875 254.714844 116.957031 253.570312 115.894531 252.398438 C 114.832031 251.226562 113.800781 250.03125 112.796875 248.808594 C 111.796875 247.585938 110.824219 246.339844 109.882812 245.070312 C 108.941406 243.796875 108.03125 242.503906 107.152344 241.191406 C 106.273438 239.875 105.429688 238.539062 104.617188 237.183594 C 103.804688 235.828125 103.023438 234.449219 102.28125 233.054688 C 101.535156 231.660156 100.824219 230.25 100.148438 228.820312 C 99.472656 227.390625 98.835938 225.941406 98.230469 224.480469 C 97.625 223.019531 97.058594 221.546875 96.527344 220.054688 C 95.992188 218.566406 95.5 217.066406 95.039062 215.550781 C 94.582031 214.039062 94.164062 212.515625 93.78125 210.980469 C 93.394531 209.445312 93.050781 207.902344 92.742188 206.351562 C 92.4375 204.800781 92.167969 203.242188 91.9375 201.679688 C 91.707031 200.113281 91.515625 198.546875 91.363281 196.972656 C 91.207031 195.398438 91.09375 193.820312 91.015625 192.242188 C 90.941406 190.660156 90.90625 189.082031 90.90625 187.5 L 187.5 187.5 Z M 187.5 90.90625 " fill-opacity="1" fill-rule="nonzero"/></svg>